<?xml version="1.0" encoding="UTF-8"?>
<svg width="376px" height="151px" viewBox="0 0 376 151" version="1.1" xmlns="http://www.w3.org/2000/svg" xmlns:xlink="http://www.w3.org/1999/xlink">
    <!-- Generator: Sketch 44.1 (41455) - http://www.bohemiancoding.com/sketch -->
    <title>goldman</title>
    <desc>Created with Sketch.</desc>
    <defs></defs>
    <g id="Page-1" stroke="none" stroke-width="1" fill="none" fill-rule="evenodd">
        <g id="goldman" transform="translate(-1.000000, 0.000000)" fill-rule="nonzero" fill="#FFFFFF">
            <path d="M349.4,70 L334.5,70 L334.5,12.9 L348.3,12.9 L348.3,19.3 C350.1,15.6 354.4,12.3 360.3,11.9 C369.8,11.2 376.1,16.9 376.1,28.9 L376.1,70 L361.2,70 L361.2,26.8 C361.2,22 361.1,17.8 357.6,16.9 C356.1,16.5 354,16.8 352.5,18.1 C350,20.3 349.3,22.9 349.3,26.9 C349.4,28.1 349.4,70 349.4,70 L349.4,70 Z M99.2,16.9 C95.5,13.8 91.4,11.9 86.1,11.9 C80.8,11.9 76.8,13.9 73.1,16.9 C66.9,22 63.2,31.1 63.2,41.5 C63.2,51.9 66.9,61 73.1,66.1 C76.8,69.2 80.9,71.1 86.1,71.1 C91.4,71.1 95.4,69.1 99.2,66.1 C105.4,61 109.1,51.9 109.1,41.5 C109.1,31.1 105.4,22 99.2,16.9 Z M93.7,41.5 C93.7,51.9 93.7,60.3 91.6,64.7 C90.6,66.9 89,68.1 86.2,68.1 C83.4,68.1 81.9,66.8 80.8,64.7 C78.7,60.3 78.7,51.9 78.7,41.5 C78.7,31.1 78.7,22.6 80.8,18.2 C81.8,16 83.4,14.8 86.2,14.8 C89,14.8 90.6,16.1 91.6,18.2 C93.7,22.6 93.7,31.1 93.7,41.5 Z M250.1,91.3 L250.1,106.8 L247.2,106.8 C245.6,100.3 242.8,94.9 235.9,94.3 C231.7,94 227.8,96.3 227.5,100.1 C227.1,103.9 228.3,107.7 236.2,111.9 C245.9,117.1 253.6,119.8 253.6,131.1 C253.6,143.3 243.1,149.4 233.7,149.4 L216.5,149.4 L216.5,128.2 L219.5,128.2 C221.9,139.4 225.1,146.1 233.6,146.4 C239,146.5 242.8,143.5 242.8,137.9 C242.8,132.6 239.1,129 231,124.3 C222.1,119.1 216.2,115.8 216.2,107.9 C216.1,97.9 223.6,91.4 235.4,91.4 C238.8,91.3 250.1,91.3 250.1,91.3 L250.1,91.3 Z M269.1,70 L269.1,28.9 C269.1,16.9 263,11.2 253.5,11.9 C246.9,12.4 242.9,16.5 241.3,19.7 C239,14 234.1,11.4 227.3,11.9 C221.4,12.3 217.4,15.6 215.7,19.3 L215.7,12.9 L202.2,12.9 L202.2,70 L216.8,70 L216.8,26.9 C216.8,22.9 217.5,20.2 220,18.1 C221.7,16.7 223.2,16.6 224.7,16.9 C228.1,17.8 228.3,22 228.3,26.8 L228.3,69.9 L243,69.9 L243,26.7 C243,22.7 243.6,20.2 246.2,18.1 C247.9,16.7 249.5,16.6 250.9,16.9 C254.3,17.8 254.5,22 254.5,26.8 L254.5,69.9 L269.1,70 L269.1,70 Z M119.1,1.1 L134.1,1.1 L134.1,70 L119.1,70 L119.1,1.1 Z M187.8,70 L187.8,1.1 L172.9,1.1 L172.9,17.3 C171.4,14.3 168.5,12.1 164,12.1 C153,12.1 144.4,23.3 144,40 C143.7,51.3 147.7,70.5 162.7,70.5 C168.8,70.5 172.2,67.2 173.6,64.2 L173.6,69.9 L187.8,69.9 L187.8,70 L187.8,70 Z M169.9,17.7 C173,22.1 173.2,32 173.2,40.2 C173.2,48.4 173.7,59.7 170.1,64.2 C168.7,66 167.6,66.9 165.5,66.9 C162.5,66.8 160.5,63.6 159.8,57.7 C159.2,52.7 159.1,46.4 159.1,39.8 C159.1,28.4 160.3,15.7 165.8,15.5 C167.9,15.5 169,16.4 169.9,17.7 L169.9,17.7 Z M314.2,14.6 C318.3,17 320.6,20.3 320.6,27.7 L320.6,70 L306.3,70 L306.3,63.7 C304.6,68 300,71 293.6,71 C288,71 279.1,68.6 279.1,55.4 C279.1,43.3 287.5,40.7 296.2,36.9 C304.7,33.3 305.6,32.7 305.6,29.6 L305.6,20.2 C305.6,20.2 303.3,14.6 299,14.9 C297.3,15 294.4,15.9 294.2,17.9 C294,20.7 296.8,20.6 297.2,24.6 C297.7,30.2 293,32.4 288.6,32.2 C285.7,32 282,30.4 281.6,25.5 C281.1,18.2 289.8,11.9 302.1,11.9 C307.8,11.9 311.3,12.9 314.2,14.6 Z M305.7,35.9 L300.9,38.9 C295.9,41.8 295.1,45.5 294.7,49.8 C294.4,53.1 294.3,56.3 294.7,61.2 C295.1,66.1 298.1,67 300.7,66 C303.9,64.7 305.7,59.2 305.7,53.2 L305.7,35.9 Z M99.8,94 C103.9,96.4 106.2,99.7 106.2,107.1 L106.2,149.4 L92,149.4 L92,143.1 C90.3,147.4 85.7,150.4 79.3,150.4 C73.7,150.4 64.8,148 64.8,134.9 C64.8,122.8 73.1,120.2 81.9,116.4 C90.4,112.8 91.3,112.2 91.3,109.1 L91.3,99.7 C91.3,99.7 89,94.1 84.7,94.4 C83,94.5 80.1,95.4 79.9,97.4 C79.7,100.2 82.5,100.1 82.9,104.1 C83.4,109.7 78.7,111.9 74.4,111.7 C71.5,111.5 67.7,109.9 67.4,105 C66.9,97.7 75.6,91.4 87.9,91.4 C93.3,91.3 96.9,92.3 99.8,94 L99.8,94 Z M91.3,115.3 L86.5,118.3 C81.6,121.2 80.7,124.9 80.3,129.2 C80,132.5 79.9,135.7 80.3,140.6 C80.7,145.5 83.7,146.4 86.3,145.3 C89.5,144 91.3,138.5 91.3,132.5 L91.3,115.3 L91.3,115.3 Z M204.6,108.3 C204.6,96.3 198.3,90.6 188.8,91.3 C183.9,91.6 180,94 177.9,97 L177.9,80.6 L163,80.6 L163,119.5 C163,133.8 152.7,147.3 142.6,147.2 C134.9,147.1 133.2,141.5 132.3,135.6 C131,127 130.9,117.5 132,106.6 C132.7,99.9 134.7,94.6 139.6,94.4 C143.7,94.3 143.9,97.1 142.5,98.6 C140.4,100.8 138,102.8 139.1,107.4 C140.4,112.7 149,113.4 152.6,109.5 C155.7,106.1 155.4,100.7 153.1,97.4 C150.3,93.3 146.1,91.4 139.7,91.4 C131.5,91.5 116,98.6 116,121.6 C116,146.3 131.8,150.6 141,150.6 C151.4,150.6 160.5,141.6 162.9,134.1 L162.9,149.5 L177.8,149.5 L177.8,106.6 C177.8,102.6 178.5,100 181,97.8 C182.5,96.5 184.6,96.3 186.1,96.6 C189.5,97.5 189.6,101.7 189.6,106.5 L189.6,149.4 L204.6,149.4 L204.6,108.3 L204.6,108.3 Z M53,0 L53,24 L50.1,24 C47.7,12.5 42.1,3.3 34.2,2.9 C28.9,2.7 25.7,5.5 23.2,9.9 C20.5,14.7 19.2,25.5 19.2,38.2 C19.2,49.9 19.7,58.8 21.2,65.1 C22,68.2 23.9,72.9 29.6,73 C32.9,73.1 34.7,71.9 36.2,70.3 C38.5,68 38.9,62.8 38.9,59.2 L38.9,48.1 C38.9,43.9 37.3,41.2 35.3,39.9 C33.6,38.9 31,38.8 29.5,38.7 L29.5,35.7 L53.8,35.7 L53.8,96.2 L50.9,96.2 C49.8,91.4 48.7,88.1 46.7,84.3 C44.6,80.4 40.7,76.4 34.3,76.1 C27.4,75.7 21.9,80.2 21.9,86.5 C21.9,94.9 26.9,96.9 36.7,102.2 C45.6,107.1 57.5,111.3 57.5,126.4 C57.5,140.6 44.8,149.6 30.7,149.6 L7.8,149.6 L7.8,120.2 L10.8,120.2 C14.6,142.3 24.3,146.2 30.7,146.2 C38.9,146.2 42.9,141 42.6,133.6 C42.3,124.5 35.9,121.2 26.7,116.3 C13.7,109.4 7.6,105.7 7.8,94 C8,84.1 16.1,77.6 25.6,75.1 C6.4,72.8 0.9,55.8 1,37.7 C1.2,19.7 12,0 33,0 L53,0 Z" id="Shape"></path>
        </g>
    </g>
</svg>