<?xml version="1.0" encoding="UTF-8"?>
<svg width="1000px" height="329px" viewBox="0 0 1000 329" version="1.1" xmlns="http://www.w3.org/2000/svg" xmlns:xlink="http://www.w3.org/1999/xlink">
    <!-- Generator: Sketch 44.1 (41455) - http://www.bohemiancoding.com/sketch -->
    <title>google</title>
    <desc>Created with Sketch.</desc>
    <defs></defs>
    <g id="Page-1" stroke="none" stroke-width="1" fill="none" fill-rule="evenodd">
        <g id="google" fill-rule="nonzero" fill="#FFFFFF">
            <path d="M246.11,116.18 L129.54,116.18 L129.54,150.771 L212.213,150.771 C208.1288,199.277 167.773,219.963 129.68,219.963 C80.944,219.963 38.416,181.617 38.416,127.871 C38.416,75.514 78.956,35.192 129.787,35.192 C169.004,35.192 192.113,60.192 192.113,60.192 L216.333,35.111 C216.333,35.111 185.246,0.503 128.549,0.503 C56.352,0.502 0.499,61.436 0.499,127.253 C0.499,191.746 53.038,254.633 130.389,254.633 C198.42,254.633 248.219,208.029 248.219,139.113 C248.219,124.574 246.1081,116.171 246.1081,116.171 L246.11,116.18 Z" id="path2998"></path>
            <path d="M341.6,91.129 C293.768,91.129 259.489,128.524 259.489,172.137 C259.489,216.395 292.738,254.485 342.162,254.485 C386.904,254.485 423.559,220.288 423.559,173.088 C423.559,118.99 380.921,91.129 341.6,91.129 Z M342.07563,123.212 C365.59763,123.212 387.88763,142.229 387.88763,172.872 C387.88763,202.865 365.69263,222.424 341.96763,222.424 C315.89963,222.424 295.33463,201.546 295.33463,172.634 C295.33463,144.342 315.64463,123.212 342.07563,123.212 Z" id="path3000"></path>
            <path d="M520.18,91.129 C472.348,91.129 438.069,128.524 438.069,172.137 C438.069,216.395 471.318,254.485 520.742,254.485 C565.484,254.485 602.139,220.288 602.139,173.088 C602.139,118.99 559.501,91.129 520.18,91.129 L520.18,91.129 Z M520.65562,123.212 C544.17762,123.212 566.46762,142.229 566.46762,172.872 C566.46762,202.865 544.27262,222.424 520.54762,222.424 C494.47962,222.424 473.91462,201.546 473.91462,172.634 C473.91462,144.342 494.22462,123.212 520.65562,123.212 L520.65562,123.212 Z" id="path3005"></path>
            <path d="M695.34,91.215 C651.436,91.215 616.926,129.668 616.926,172.828 C616.926,221.991 656.935,254.593 694.583,254.593 C717.862,254.593 730.24,245.3525 739.379,234.746 L739.379,250.852 C739.379,279.032 722.269,295.907 696.443,295.907 C671.494,295.907 658.98,277.356 654.631,266.829 L623.24,279.952 C634.376,303.499 656.794,328.055 696.703,328.055 C740.355,328.055 773.625,300.56 773.625,242.896 L773.625,96.126 L739.38,96.126 L739.38,109.962 C728.85,98.615 714.45,91.217 695.34,91.217 L695.34,91.215 Z M698.518,123.233 C720.043,123.233 742.146,141.613 742.146,173.001 C742.146,204.905 720.09,222.488 698.042,222.488 C674.636,222.488 652.857,203.483 652.857,173.304 C652.857,141.946 675.476,123.233 698.517,123.233 L698.518,123.233 Z" id="path3007"></path>
            <path d="M925.89,91.02 C884.476,91.02 849.703,123.97 849.703,172.59 C849.703,224.037 888.462,254.549 929.868,254.549 C964.426,254.549 985.636,235.643 998.294,218.704 L970.059,199.917 C962.7322,211.288 950.483,222.401 930.041,222.401 C907.079,222.401 896.521,209.827 889.98,197.647 L999.5,152.203 L993.8141,138.885 C983.2341,112.805 958.5541,91.025 925.8941,91.025 L925.89,91.02 Z M927.3168,122.433 C942.2398,122.433 952.9798,130.3672 957.5408,139.88 L884.4018,170.45 C881.2486,146.783 903.6708,122.433 927.3168,122.433 Z" id="path3011"></path>
            <polygon id="path3015" points="797.49 249.7 833.465 249.7 833.465 8.95 797.49 8.95"></polygon>
        </g>
    </g>
</svg>