<?xml version="1.0" encoding="UTF-8" standalone="no"?>
<!-- Generator: Adobe Illustrator 20.1.0, SVG Export Plug-In . SVG Version: 6.00 Build 0)  -->

<svg
   xmlns:dc="http://purl.org/dc/elements/1.1/"
   xmlns:cc="http://creativecommons.org/ns#"
   xmlns:rdf="http://www.w3.org/1999/02/22-rdf-syntax-ns#"
   xmlns:svg="http://www.w3.org/2000/svg"
   xmlns="http://www.w3.org/2000/svg"
   xmlns:sodipodi="http://sodipodi.sourceforge.net/DTD/sodipodi-0.dtd"
   xmlns:inkscape="http://www.inkscape.org/namespaces/inkscape"
   version="1.1"
   id="Layer_1"
   x="0px"
   y="0px"
   viewBox="0 0 360 102.8"
   style="enable-background:new 0 0 360 102.8;"
   xml:space="preserve"
   sodipodi:docname="mozilla.svg"
   inkscape:version="0.92.4 5da689c313, 2019-01-14"><metadata
   id="metadata15"><rdf:RDF><cc:Work
       rdf:about=""><dc:format>image/svg+xml</dc:format><dc:type
         rdf:resource="http://purl.org/dc/dcmitype/StillImage" /></cc:Work></rdf:RDF></metadata><defs
   id="defs13">
	
	
</defs><sodipodi:namedview
   pagecolor="#ffffff"
   bordercolor="#666666"
   borderopacity="1"
   objecttolerance="10"
   gridtolerance="10"
   guidetolerance="10"
   inkscape:pageopacity="0"
   inkscape:pageshadow="2"
   inkscape:window-width="1528"
   inkscape:window-height="880"
   id="namedview11"
   showgrid="false"
   inkscape:zoom="0.82777778"
   inkscape:cx="45.90604"
   inkscape:cy="51.400002"
   inkscape:window-x="0"
   inkscape:window-y="0"
   inkscape:window-maximized="0"
   inkscape:current-layer="Layer_1" />
<style
   type="text/css"
   id="style2">
	.st0{fill:#FFFFFF;}
</style>
<path
   style="fill:#ffffff"
   inkscape:connector-curvature="0"
   id="path6"
   d="m 341.05,77.300002 c -0.7,0.2 -1.3,0.3 -1.9,0.3 -2.1,0 -3.1,-0.9 -3.1,-3.5 v -19.5 c 0,-10.3 -8.2,-15.3 -17.9,-15.3 -7.4,0 -11.4,0.9 -19.3,4.1 l -1.6,10.4 10.3,1.1 1.5,-5.1 c 2.1,-1.1 4.2,-1.3 6.9,-1.3 7.3,0 7.4,5.5 7.4,10.1 v 1.5 c -2.3,-0.3 -4.9,-0.4 -7.4,-0.4 -10.3,0 -21,2.6 -21,13.7 0,9.4 7.4,12.9 13.9,12.9 7.3,0 11.9,-4.4 14.5,-9 0.6,5.5 3.9,9 9.9,9 2.8,0 5.7,-0.8 8.1,-2.1 z m -27.6,-0.3 c -3.9,0 -5.3,-2.3 -5.3,-5.2 0,-4.9 4,-6.2 8.6,-6.2 2.1,0 4.4,0.3 6.5,0.6 -0.3,7.5 -5.2,10.8 -9.8,10.8 z m -17.3,-60.5 -19.5,68.7 h -12.7 l 19.5,-68.7 z m -26.2,0 -19.5,68.7 h -12.7 l 19.5,-68.7 z m -54,23.7 h 13.5 v 16.2 h -13.5 z m 0,28.9 h 13.5 v 16.2 h -13.5 z m -19.7,-0.6 10.2,1 -2.8,15.8 h -39.3 l -1.3,-6.8 24.8,-28.5 h -14.1 l -2,7 -9.3,-1 1.6,-15.8 h 39.5 l 1,6.8 -25,28.5 h 14.6 z m -64.5,-29.2 c -16.2,0 -24.2,10.9 -24.2,24.1 0,14.4 9.6,22.9 23.5,22.9 14.4,0 24.8,-9.1 24.8,-23.5 0,-12.6 -7.9,-23.5 -24.1,-23.5 z m -0.3,37 c -7,0 -10.6,-6 -10.6,-13.8 0,-8.5 4.1,-13.4 10.7,-13.4 6.1,0 11,4.1 11,13.2 0,8.7 -4.4,14 -11.1,14 z m -35.499999,-0.9 H 101.95 v 9.8 H 83.150002 v -25.3 c 0,-7.8 -2.6,-10.8 -7.700001,-10.8 -6.2,0 -8.7,4.4 -8.7,10.7 v 15.7 h 6 v 9.8 h -18.9 v -25.4 c 0,-7.8 -2.6,-10.8 -7.7,-10.8 -6.2,0 -8.7,4.4 -8.7,10.7 v 15.7 h 8.6 v 9.8 H 18.650002 v -9.8 h 6 v -25.5 h -6 v -9.8 h 18.899999 v 6.8 c 2.700001,-4.8 7.4,-7.7 13.7,-7.7 6.5,0 12.5,3.1 14.7,9.7 2.5,-6 7.6,-9.7 14.700001,-9.7 8.099999,0 15.5,4.9 15.5,15.6 v 20.5 z"
   class="st0" />
</svg>