<?xml version="1.0" encoding="UTF-8" standalone="no"?>
<!-- Generator: Adobe Illustrator 23.0.4, SVG Export Plug-In . SVG Version: 6.00 Build 0)  -->

<svg
   xmlns:dc="http://purl.org/dc/elements/1.1/"
   xmlns:cc="http://creativecommons.org/ns#"
   xmlns:rdf="http://www.w3.org/1999/02/22-rdf-syntax-ns#"
   xmlns:svg="http://www.w3.org/2000/svg"
   xmlns="http://www.w3.org/2000/svg"
   xmlns:sodipodi="http://sodipodi.sourceforge.net/DTD/sodipodi-0.dtd"
   xmlns:inkscape="http://www.inkscape.org/namespaces/inkscape"
   version="1.1"
   id="Layer_1"
   x="0px"
   y="0px"
   viewBox="0 0 313.87 53.57"
   style="enable-background:new 0 0 313.87 53.57;"
   xml:space="preserve"
   sodipodi:docname="nextjournal.svg"
   inkscape:version="0.92.4 5da689c313, 2019-01-14"><metadata
   id="metadata960"><rdf:RDF><cc:Work
       rdf:about=""><dc:format>image/svg+xml</dc:format><dc:type
         rdf:resource="http://purl.org/dc/dcmitype/StillImage" /></cc:Work></rdf:RDF></metadata><defs
   id="defs958">
	
	

		
		
		
		
		
		
		
		
		
		
		
	</defs><sodipodi:namedview
   pagecolor="#ffffff"
   bordercolor="#666666"
   borderopacity="1"
   objecttolerance="10"
   gridtolerance="10"
   guidetolerance="10"
   inkscape:pageopacity="0"
   inkscape:pageshadow="2"
   inkscape:window-width="1920"
   inkscape:window-height="1025"
   id="namedview956"
   showgrid="false"
   inkscape:zoom="4.2278651"
   inkscape:cx="156.935"
   inkscape:cy="26.785"
   inkscape:window-x="0"
   inkscape:window-y="0"
   inkscape:window-maximized="1"
   inkscape:current-layer="Layer_1" />
<style
   type="text/css"
   id="style925">
	.st0{fill:#1E1E1E;}
	.st1{fill:#369CB6;}
</style>
<path
   class="st0"
   d="M 36.32,16.04 V 41.62 H 28.57 V 2.89 h 7.95 L 53.5,28.58 V 2.89 h 7.75 v 38.73 h -8.02 z"
   id="path927"
   inkscape:connector-curvature="0"
   style="fill:#ffffff" /><path
   class="st0"
   d="m 85.93,32.29 7.15,1.64 c -1.09,2.62 -2.74,4.66 -4.94,6.14 -2.2,1.47 -4.9,2.21 -8.1,2.21 -4.22,0 -7.67,-1.4 -10.36,-4.2 -2.69,-2.8 -4.04,-6.4 -4.04,-10.8 0,-4.26 1.34,-7.8 4.04,-10.64 2.69,-2.84 6.13,-4.25 10.31,-4.25 4.18,0 7.59,1.41 10.23,4.23 2.64,2.82 3.96,6.38 3.96,10.67 l -0.11,2.29 H 73.33 c 0.25,1.96 0.98,3.46 2.18,4.5 1.2,1.04 2.78,1.55 4.75,1.55 2.76,-0.01 4.65,-1.12 5.67,-3.34 z m -6,-13.69 c -1.75,0 -3.18,0.48 -4.31,1.45 -1.13,0.96 -1.86,2.28 -2.18,3.96 h 12.98 c -0.29,-1.64 -1,-2.95 -2.13,-3.93 -1.12,-0.99 -2.58,-1.48 -4.36,-1.48 z"
   id="path929"
   inkscape:connector-curvature="0"
   style="fill:#ffffff" /><path
   class="st0"
   d="m 124.14,13.04 -10.34,14.07 10.67,14.51 h -9.33 l -6,-8.17 -6,8.17 H 93.81 L 104.48,27.11 94.13,13.04 h 9.33 l 5.67,7.72 5.67,-7.72 z"
   id="path931"
   inkscape:connector-curvature="0"
   style="fill:#ffffff" /><path
   class="st0"
   d="m 139.84,34.75 v 6.71 c -0.87,0.22 -2.09,0.33 -3.66,0.33 -5.86,0 -8.78,-2.91 -8.78,-8.73 V 19.15 13.04 5.95 h 7.75 v 7.09 h 4.75 v 6.11 h -4.75 v 13.09 c 0,1.85 0.96,2.78 2.89,2.78 z"
   id="path933"
   inkscape:connector-curvature="0"
   style="fill:#ffffff" /><path
   class="st0"
   d="m 152.36,8.02 c -0.87,0.87 -2,1.31 -3.38,1.31 -1.38,0 -2.51,-0.44 -3.38,-1.31 -0.87,-0.87 -1.31,-1.98 -1.31,-3.33 0,-1.34 0.44,-2.46 1.31,-3.35 0.87,-0.89 2,-1.34 3.38,-1.34 1.38,0 2.51,0.45 3.38,1.34 0.87,0.89 1.31,2.01 1.31,3.35 0,1.35 -0.44,2.46 -1.31,3.33 z M 141.18,53.46 V 46.8 c 0.22,0.04 0.51,0.05 0.87,0.05 1.02,0 1.78,-0.21 2.29,-0.63 0.51,-0.42 0.76,-1.19 0.76,-2.32 V 13.04 h 7.75 v 30.71 c 0,3.31 -0.87,5.77 -2.59,7.39 -1.73,1.62 -4.1,2.43 -7.12,2.43 z"
   id="path935"
   inkscape:connector-curvature="0"
   style="fill:#ffffff" /><path
   class="st0"
   d="m 183.11,37.94 c -2.76,2.89 -6.38,4.34 -10.86,4.34 -4.48,0 -8.09,-1.45 -10.86,-4.34 -2.76,-2.89 -4.15,-6.43 -4.15,-10.61 0,-4.18 1.38,-7.72 4.15,-10.61 2.76,-2.89 6.38,-4.34 10.86,-4.34 4.48,0 8.09,1.45 10.86,4.34 2.76,2.89 4.15,6.43 4.15,10.61 0,4.18 -1.39,7.72 -4.15,10.61 z M 167.05,21.38 c -1.36,1.46 -2.04,3.44 -2.04,5.95 0,2.51 0.68,4.49 2.04,5.95 1.36,1.46 3.1,2.18 5.21,2.18 2.11,0 3.85,-0.73 5.21,-2.18 1.36,-1.45 2.04,-3.44 2.04,-5.95 0,-2.51 -0.68,-4.49 -2.04,-5.95 -1.36,-1.45 -3.1,-2.18 -5.21,-2.18 -2.11,0 -3.85,0.73 -5.21,2.18 z"
   id="path937"
   inkscape:connector-curvature="0"
   style="fill:#ffffff" /><path
   class="st0"
   d="M 209.65,29.29 V 13.04 h 7.75 v 28.58 h -7.15 v -3.49 c -1.49,2.76 -4.29,4.15 -8.4,4.15 -3.35,0 -5.92,-1.03 -7.72,-3.08 -1.8,-2.05 -2.7,-4.83 -2.7,-8.32 V 13.04 h 7.75 V 30 c 0,3.75 1.58,5.62 4.75,5.62 1.89,0 3.32,-0.54 4.28,-1.64 0.95,-1.09 1.44,-2.65 1.44,-4.69 z"
   id="path939"
   inkscape:connector-curvature="0"
   style="fill:#ffffff" /><path
   class="st0"
   d="m 239.73,12.82 v 7.26 c -0.55,-0.11 -1.06,-0.16 -1.53,-0.16 -2.29,0 -4.01,0.6 -5.16,1.8 -1.14,1.2 -1.72,3.09 -1.72,5.67 v 14.24 h -7.75 V 13.04 h 7.15 v 3.71 c 1.64,-2.65 4.33,-3.98 8.07,-3.98 z"
   id="path941"
   inkscape:connector-curvature="0"
   style="fill:#ffffff" /><path
   class="st0"
   d="m 250.06,13.04 v 3.49 c 1.49,-2.76 4.33,-4.15 8.51,-4.15 3.38,0 5.98,1.03 7.8,3.08 1.82,2.05 2.73,4.83 2.73,8.32 v 17.84 h -7.75 V 24.66 c 0,-3.75 -1.62,-5.62 -4.86,-5.62 -1.86,0 -3.29,0.55 -4.31,1.66 -1.02,1.11 -1.53,2.63 -1.53,4.55 V 41.62 H 242.9 V 13.04 Z"
   id="path943"
   inkscape:connector-curvature="0"
   style="fill:#ffffff" /><path
   class="st0"
   d="m 281.64,22.48 -7.42,-1.36 c 0.47,-2.54 1.74,-4.64 3.79,-6.27 2.05,-1.64 5.03,-2.45 8.92,-2.45 4.14,0 7.27,0.93 9.38,2.78 2.11,1.86 3.16,4.47 3.16,7.86 v 11.07 c 0,1.24 0.51,1.86 1.53,1.86 l 0.82,-0.05 v 5.89 c -0.4,0.15 -1.07,0.22 -2.02,0.22 -3.27,0 -5.44,-1.18 -6.49,-3.55 -2.36,2.55 -5.65,3.82 -9.87,3.82 -3.31,0 -5.81,-0.78 -7.5,-2.35 -1.69,-1.56 -2.54,-3.58 -2.54,-6.06 0,-5.06 3.72,-8.21 11.16,-9.44 l 7.55,-1.25 v -0.22 c 0,-2.8 -1.73,-4.2 -5.18,-4.2 -3.17,-0.01 -4.93,1.22 -5.29,3.7 z m 10.47,6.29 -6.8,1.29 c -1.57,0.29 -2.7,0.69 -3.4,1.21 -0.69,0.52 -1.04,1.21 -1.04,2.06 0,1.97 1.44,2.95 4.31,2.95 2.22,0 3.93,-0.58 5.13,-1.75 1.2,-1.17 1.8,-2.75 1.8,-4.73 z"
   id="path945"
   inkscape:connector-curvature="0"
   style="fill:#ffffff" /><path
   class="st0"
   d="m 313.87,41.62 h -7.75 V 0.71 h 7.75 z"
   id="path947"
   inkscape:connector-curvature="0"
   style="fill:#ffffff" /><polygon
   style="fill:#369cb6"
   id="polygon951"
   points="10.8,23.61 0.08,39.13 10.32,39.13 21.14,23.45 10.55,8.56 0,8.56 "
   class="st1" />
</svg>