<?xml version="1.0" encoding="utf-8"?>
<!-- Generator: Adobe Illustrator 23.0.2, SVG Export Plug-In . SVG Version: 6.00 Build 0)  -->
<svg version="1.1" id="Layer_1" xmlns="http://www.w3.org/2000/svg" xmlns:xlink="http://www.w3.org/1999/xlink" x="0px" y="0px"
	 viewBox="0 0 461.7 74" style="enable-background:new 0 0 461.7 74;" xml:space="preserve">
<style type="text/css">
	.st0{fill:#FFFFFF;}
</style>
<g>
	<g>
		<path class="st0" d="M155.5,48c0.8,6,4.2,9.9,11,9.9c4.1,0,7.6-1.8,9.1-5.1h10.3c-2,9-10.1,13.9-19.5,13.9
			c-12.9,0-21.2-8.8-21.2-21.6s9.1-21.5,20.5-21.5c11,0,21.4,6.8,20,24.5h-24.5L155.5,48L155.5,48z M155.9,40.3h19.7
			c-0.2-4.1-3.8-8.2-9.5-8.2C161,32,157.3,35,155.9,40.3z"/>
		<path class="st0" d="M374.9,65.9h-10.8V24.4h10.8V65.9z"/>
		<path class="st0" d="M363.4,14c0-3.5,2.8-6.1,6.2-6.1s6,2.6,6,6.1c0,3.2-2.7,6.1-6,6.1S363.4,17.2,363.4,14z"/>
		<path class="st0" d="M422,24.4l-14.3,41.5h-15.2l-14.3-41.5h11.1l10.5,31.8h0.9l10.2-31.8H422z"/>
		<path class="st0" d="M461.7,52.8c-2,9-10.1,13.9-19.5,13.9c-12.9,0-21.2-8.8-21.2-21.6s9.1-21.5,20.5-21.5c11,0,21.4,6.8,20,24.5
			h-30.1c0.8,6,4.2,9.9,11,9.9c4.1,0,7.6-1.8,9.1-5.1L461.7,52.8L461.7,52.8z M431.8,40.3h19.7c-0.2-4.1-3.8-8.2-9.5-8.2
			C436.9,32,433.1,35,431.8,40.3z"/>
		<path class="st0" d="M359.2,33.2v-8.8h-10.3V14h-9.8v5.9c0,2.5-2,4.6-4.6,4.6h-2h-2.6l0,0v8.8h8.1v20.2c0,6.9,5.6,12.4,12.4,12.4
			h8.6V55.8h-8.1c-1.2,0-2.2-1-2.2-2.1V33.3L359.2,33.2L359.2,33.2z"/>
		<path class="st0" d="M144.6,26.7c0,11.6-7.3,18.8-20.1,18.8h-8.2c-1.6,0-3,1.3-3,3v17.4h-10.7V8.1h22.2
			C137.4,8.1,144.6,15.8,144.6,26.7z M133.3,26.7c0-5-3.3-8.6-9.3-8.6h-10.6v17.4h10.3C130.1,35.5,133.3,32,133.3,26.7z"/>
		<path class="st0" d="M210.1,24.4c-2.8,0-4.8,0.6-6.6,1.6c-1.3,0.7-2.2,2-2.8,3.3l0,0h-0.9l-1-4.9h-7.9v41.5h11.2l0,0l0,0V37.4
			c0-1.2,1-2.2,2.2-2.2h11V24.4H210.1L210.1,24.4z"/>
		<path class="st0" d="M281.5,41.7v24.2h-11.2V42.2c0-5.8-3.1-8.6-7.1-8.6c-3.7,0-7.2,3-7.2,8.8v23.5h-11.1V42.4
			c0-5.9-3.1-8.9-7-8.9c-3.6,0-7.3,2.8-7.3,8.6v23.7h-11.2V24.4h8.8l1.3,5h0.9c1.9-3.1,5.9-5.8,11.4-5.8c5.9,0,10.1,3.6,11.7,7.1
			h0.9c1.9-3.6,5.7-7.1,12.4-7.1C275.4,23.6,281.5,29.2,281.5,41.7z"/>
		<path class="st0" d="M286.5,47.9V24.4h11.2V46c0,7.3,3.6,10.8,8.8,10.8c4.5,0,8.5-3.1,8.5-10.5V24.4h11.2v41.5h-8.7l-1.4-5.1h-0.9
			c-1.9,2.4-4.9,5.9-12.6,5.9C293.3,66.7,286.5,60.2,286.5,47.9z"/>
	</g>
	<g>
		<path class="st0" d="M9.6,45.5H0V74h28.5v-9.5C19.9,61.1,13,54.1,9.6,45.5z"/>
		<path class="st0" d="M40.7,0C22.3,0,7.3,14.9,7.3,33.4c0,4.3,0.8,8.4,2.3,12.1h19v19c3.8,1.5,7.8,2.3,12.1,2.3
			c18.4,0,33.4-14.9,33.4-33.4S59.1,0,40.7,0z"/>
	</g>
</g>
</svg>
