<?xml version="1.0" encoding="UTF-8"?>
<svg width="406px" height="406px" viewBox="0 0 406 406" version="1.1" xmlns="http://www.w3.org/2000/svg" xmlns:xlink="http://www.w3.org/1999/xlink">
    <!-- Generator: Sketch 44.1 (41455) - http://www.bohemiancoding.com/sketch -->
    <title>huawei-logo-full</title>
    <desc>Created with Sketch.</desc>
    <defs></defs>
    <g id="Page-1" stroke="none" stroke-width="1" fill="none" fill-rule="evenodd">
        <g id="huawei-logo-full" fill-rule="nonzero" fill="#FFFFFF">
            <path d="M14.955,365.933 L47.999,365.933 L47.999,339.52 L62.843,339.52 L62.843,404.686 L47.999,404.686 L47.999,377.456 L14.955,377.456 L14.955,404.686 L0.103,404.686 L0.103,339.521 L14.955,339.521 L14.955,365.933 L14.955,365.933 Z M89.768,378.556 C89.768,390.079 93.404,394.88 105.681,394.88 C117.958,394.88 121.493,390.08 121.493,378.556 L121.493,339.52 L136.35,339.52 L136.35,378.915 C136.35,387.249 135.344,392.972 132.208,396.415 C126.408,402.778 117.958,405.403 105.681,405.403 C93.404,405.403 84.851,402.778 79.051,396.415 C75.811,392.895 75.019,387.167 75.019,378.915 L75.019,339.52 L89.769,339.52 L89.769,378.556 L89.768,378.556 Z M184.827,339.52 L214.889,404.686 L198.384,404.686 L191.894,389.169 L161.239,389.169 L154.953,404.686 L139.237,404.686 L169.092,339.52 L184.827,339.52 Z M166.059,377.558 L187.094,377.558 L176.391,352.508 L166.059,377.558 Z M221.63,339.52 L237.946,389.63 L251.696,339.52 L269.192,339.52 L285.008,389.63 L300.231,339.52 L315.465,339.52 L293.663,404.686 L275.483,404.686 L260.434,356.05 L247.278,404.686 L229.202,404.686 L205.71,339.52 L221.63,339.52 Z M335.45,366.024 L376.508,366.024 L376.508,377.364 L335.362,377.364 C335.45,389.079 340.456,393.334 352.145,393.334 L376.508,393.334 L376.508,404.686 L351.456,404.686 C342.916,404.686 336.333,404.046 329.454,398.964 C322.188,393.618 318.654,385.084 318.654,373.282 C318.654,350.249 329.164,339.52 351.864,339.52 L376.508,339.52 L376.508,350.876 L352.145,350.876 C341.444,350.876 336.04,355.766 335.45,366.024 L335.45,366.024 Z M389.592,404.686 L389.592,339.52 L405.11,339.52 L405.11,404.686 L389.592,404.686 Z M174.317,238.009 C174.756242,237.638287 174.896966,237.02155 174.662,236.497 L174.674,236.497 C127.094,132.559 62.004,53.752 62.004,53.752 C62.004,53.752 26.594,87.359 29.114,121.03 C30.459,146.501 49.631,161.588 49.631,161.588 C80.511,191.675 155.279,229.673 172.651,238.296 C173.210914,238.563962 173.879023,238.448867 174.317,238.009 Z M162.754,263.743 C162.511531,263.069295 161.869986,262.622218 161.154,262.628 L161.154,262.588 L36.687,266.928 C50.19,291 72.92,309.69 96.603,303.949 C112.953,299.871 149.965,274.047 162.18,265.316 L162.147,265.291 C162.673587,264.969995 162.921779,264.337455 162.754,263.744 L162.754,263.743 Z M164.637,252.571 C164.938937,251.921226 164.744048,251.148766 164.17,250.72 L164.176,250.702 C109.51,213.823 3.555,157.204 3.555,157.204 C-6.074,187.028 6.908,211.052 6.908,211.052 C20.402,239.597 46.188,248.237 46.188,248.237 C53.792655,251.248022 61.8333082,253.01236 70,253.462 C71.862,253.808 144.026,253.501 163.357,253.409 C163.89348,253.351421 164.369658,253.039673 164.637,252.571 L164.637,252.571 Z M172.895,0 C167.479,0.48 152.858,3.809 152.858,3.809 C119.905,12.323 112.12,42.229 112.12,42.229 C106.104,61.049 112.275,81.706 112.275,81.706 C123.272,130.517 177.402,210.714 189.034,227.556 C189.368402,228.022208 189.957733,228.230888 190.511,228.079 C191.220482,227.90583 191.707172,227.253413 191.671,226.524 L191.69,226.536 C209.6,47.466 172.895,0 172.895,0 Z M214.106,228.034 C214.796413,228.298862 215.575471,228.000949 215.913,227.343 L215.924,227.356 C227.864,210.085 281.68,130.326 292.626,81.706 C292.626,81.706 298.565,58.169 292.831,42.229 C292.831,42.229 284.694,11.862 251.69,3.834 C251.69,3.834 242.182,1.427 232.094,4.26325641e-14 C232.094,4.26325641e-14 195.21,47.492 213.141,226.665 L213.159,226.665 C213.177202,227.268353 213.548001,227.804777 214.106,228.035 L214.106,228.034 Z M243.573,262.704 C242.976229,262.775384 242.452182,263.134336 242.17,263.665 C242.025225,264.269976 242.207712,264.906593 242.651,265.343 L242.631,265.354 C254.549,273.895 290.667,299.154 308.081,304.058 C308.081,304.058 340.252,315.022 368.2,267.007 L243.579,262.667 L243.573,262.704 Z M401.327,156.948 C401.327,156.948 295.532,213.728 240.827,250.62 L240.84,250.638 C240.259913,251.042093 240.001716,251.770835 240.198,252.45 C240.456813,252.943348 240.930139,253.288458 241.479,253.384 L241.479,253.396 C261.055,253.423 335.208,253.513 337.077,253.166 C344.424942,252.592873 351.647043,250.931756 358.507,248.237 C358.507,248.237 384.867,239.853 398.569,209.907 C398.569,209.907 410.782,185.479 401.327,156.947 L401.327,156.948 Z M230.827,238.009 C231.316203,238.368731 231.968562,238.415412 232.504,238.129 L232.504,238.136 C250.338,229.284 324.538,191.534 355.27,161.588 C355.27,161.588 374.723,145.957 375.754,120.864 C377.994,86.008 342.917,53.752 342.917,53.752 C342.917,53.752 278.017,132.309 230.456,236.03 L230.483,236.024 C230.168052,236.692066 230.305618,237.48587 230.827,238.009 L230.827,238.009 Z" id="Shape"></path>
        </g>
    </g>
</svg>