<?xml version="1.0" encoding="UTF-8"?>
<svg width="345px" height="97px" viewBox="0 0 345 97" version="1.1" xmlns="http://www.w3.org/2000/svg" xmlns:xlink="http://www.w3.org/1999/xlink">
    <!-- Generator: Sketch 44.1 (41455) - http://www.bohemiancoding.com/sketch -->
    <title>msr</title>
    <desc>Created with Sketch.</desc>
    <defs>
        <polyline id="path-1" points="0 95.982875 0 0 344.05625 0 344.05625 95.982875"></polyline>
    </defs>
    <g id="Page-1" stroke="none" stroke-width="1" fill="none" fill-rule="evenodd">
        <g id="msr">
            <g id="g3054" transform="translate(172.500000, 48.250000) scale(-1, 1) rotate(-180.000000) translate(-172.500000, -48.250000) translate(0.000000, 0.250000)">
                <g id="g3056">
                    <g id="g3058">
                        <g id="g3060-Clipped">
                            <mask id="mask-2" fill="white">
                                <use xlink:href="#path-1"></use>
                            </mask>
                            <g id="path3064"></g>
                            <g id="g3060" mask="url(#mask-2)" fill-rule="nonzero" fill="#FFFFFF">
                                <path d="M135.68375,87.439 C135.68375,87.639125 135.6275,87.784625 135.515,87.875 C135.38875,87.9775 135.17375,88.02875 134.87,88.02875 L134.43875,88.02875 L134.43875,86.838375 L134.9625,86.838375 C135.4425,86.838375 135.68375,87.038625 135.68375,87.439 Z M136.3575,84.956 L135.76375,84.956 L135.38375,85.794875 C135.19,86.214875 134.9825,86.42475 134.76125,86.42475 L134.43875,86.42475 L134.43875,84.956 L133.9475,84.956 L133.9475,88.44975 L134.9325,88.44975 C135.3675,88.44975 135.6975,88.352 135.92125,88.15675 C136.1125,87.98825 136.2075,87.7685 136.2075,87.4975 C136.2075,87.25825 136.13,87.05475 135.975,86.88625 C135.82,86.71775 135.60125,86.604 135.32125,86.545375 L135.32125,86.53075 C135.51625,86.486875 135.70875,86.272 135.9,85.88625 L136.3575,84.956 L136.3575,84.956 Z M137.445,86.6665 C137.445,87.357375 137.21125,87.933625 136.7425,88.395 C136.27375,88.8565 135.7025,89.086875 135.0275,89.086875 C134.33,89.086875 133.75,88.8545 133.29,88.389125 C132.83,87.924375 132.6,87.350125 132.6,86.6665 C132.6,85.97075 132.83875,85.389625 133.31375,84.923375 C133.78,84.464375 134.35125,84.234875 135.0275,84.234875 C135.6975,84.234875 136.2675,84.46725 136.73875,84.932125 C137.21,85.3975 137.445,85.975625 137.445,86.6665 L137.445,86.6665 Z M137.775,86.681125 C137.775,85.912125 137.50875,85.265625 136.97875,84.74175 C136.4475,84.21825 135.7925,83.9565 135.01375,83.9565 C134.2275,83.9565 133.575,84.211375 133.05625,84.721625 C132.5375,85.231875 132.2775,85.877875 132.2775,86.659125 C132.2775,87.42575 132.54125,88.07175 133.06875,88.598125 C133.59625,89.124 134.25125,89.38725 135.035,89.38725 C135.805,89.38725 136.45,89.13575 136.9725,88.63275 C137.5075,88.117625 137.775,87.46725 137.775,86.681125 L137.775,86.681125 Z" id="path3066"></path>
                                <path d="M23.21675,71.576125 L20.55075,71.576125 L20.55075,86.857875 C20.55075,88.064 20.6245,89.534125 20.773,91.2695 L20.7095,91.2695 C20.455625,90.253875 20.2275,89.5185 20.026875,89.064 L12.2670875,71.576125 L10.965825,71.576125 L3.1899375,88.937 C2.967775,89.423375 2.73975,90.200625 2.507325,91.2695 L2.44385,91.2695 C2.528325,90.359375 2.5708,88.878375 2.5708,86.826125 L2.5708,71.576125 L-2.66453526e-15,71.576125 L-2.66453526e-15,94.3325 L3.52295,94.3325 L10.505375,78.462875 C11.034175,77.267625 11.3784125,76.357375 11.5371125,75.733375 L11.64795,75.733375 C12.1025375,76.981875 12.467775,77.912625 12.743125,78.526875 L19.868125,94.3325 L23.21675,94.3325 L23.21675,71.576125" id="path3068"></path>
                                <path d="M31.437,71.576125 L28.8345,71.576125 L28.8345,87.826125 L31.437,87.826125 L31.437,71.576125 Z M31.881375,93.649875 C31.881375,93.173875 31.714375,92.7715 31.381375,92.443875 C31.047875,92.11575 30.6435,91.952125 30.1675,91.952125 C29.701625,91.952125 29.30225,92.110875 28.96925,92.42825 C28.63575,92.745625 28.46925,93.152375 28.46925,93.649875 C28.46925,94.126 28.63575,94.525375 28.96925,94.848125 C29.30225,95.170375 29.701625,95.332 30.1675,95.332 C30.6435,95.332 31.047875,95.170375 31.381375,94.848125 C31.714375,94.525375 31.881375,94.126 31.881375,93.649875 L31.881375,93.649875 Z" id="path3070"></path>
                                <path d="M47.65525,72.32175 C46.40625,71.56 44.919875,71.17925 43.19575,71.17925 C40.868125,71.17925 38.99075,71.951625 37.5625,73.496125 C36.166,74.998 35.46775,76.934125 35.46775,79.30425 C35.46775,81.97025 36.231875,84.123 37.76075,85.763125 C39.289,87.402375 41.34425,88.222625 43.92575,88.222625 C45.34325,88.222625 46.596625,87.94725 47.687,87.3975 L47.687,84.7315 C46.481,85.577625 45.19,86.001 43.815,86.001 C42.1645,86.001 40.815375,85.424375 39.768125,84.2715 C38.67825,83.086 38.13375,81.50975 38.13375,79.5425 C38.13375,77.6485 38.63325,76.151375 39.63325,75.05125 C40.63275,73.950625 41.974125,73.400875 43.65625,73.400875 C45.07325,73.400875 46.40625,73.86625 47.65525,74.797375 L47.65525,72.32175" id="path3072"></path>
                                <path d="M60.065,85.191875 C59.609375,85.541 58.94825,85.715375 58.081,85.715375 C57.023,85.715375 56.13425,85.23925 55.415,84.287125 C54.600125,83.21825 54.193375,81.742625 54.193375,79.859875 L54.193375,71.576125 L51.590875,71.576125 L51.590875,87.826125 L54.193375,87.826125 L54.193375,84.4775 L54.256875,84.4775 C54.63775,85.662125 55.224625,86.577125 56.018125,87.223125 C56.75825,87.815 57.589375,88.111875 58.50975,88.111875 C59.19675,88.111875 59.715875,88.037125 60.065,87.889625 L60.065,85.191875" id="path3074"></path>
                                <path d="M74.569375,79.669375 C74.569375,81.752875 74.098125,83.339875 73.15675,84.430125 C72.246625,85.4775 70.971625,86.001 69.3325,86.001 C67.713875,86.001 66.4175,85.471625 65.444375,84.414 C64.418,83.28175 63.90525,81.67925 63.90525,79.606 C63.90525,77.65875 64.397,76.138125 65.380875,75.0435 C66.36475,73.94825 67.682125,73.400875 69.3325,73.400875 C71.046375,73.400875 72.3525,73.9565 73.252,75.066875 C74.129875,76.1465 74.569375,77.680125 74.569375,79.669375 L74.569375,79.669375 Z M77.235375,79.764125 C77.235375,77.172375 76.505375,75.09325 75.045375,73.527875 C73.5855,71.961875 71.617625,71.17925 69.142125,71.17925 C66.69825,71.17925 64.76225,71.961875 63.334,73.527875 C61.9375,75.04 61.23925,77.034625 61.23925,79.51075 C61.23925,82.3355 62.03275,84.5195 63.619625,86.0645 C65.089875,87.502875 67.057625,88.222625 69.523,88.222625 C71.94525,88.222625 73.836,87.47125 75.19575,85.96925 C76.555125,84.46675 77.235375,82.398875 77.235375,79.764125 L77.235375,79.764125 Z" id="path3076"></path>
                                <path d="M90.13675,75.924375 C90.13675,74.59125 89.639125,73.485375 88.645,72.607375 C87.555125,71.65525 86.068875,71.17925 84.186,71.17925 C82.641125,71.17925 81.297875,71.50775 80.15525,72.163125 L80.15525,74.956 C81.42475,73.919 82.8315,73.400875 84.3765,73.400875 C86.4395,73.400875 87.47075,74.15725 87.47075,75.670375 C87.47075,76.305125 87.243125,76.828625 86.788625,77.24125 C86.333,77.65375 85.444375,78.150375 84.1225,78.732875 C82.75775,79.32525 81.7895,79.939 81.21825,80.57375 C80.53025,81.32475 80.187,82.30375 80.187,83.50975 C80.187,84.86325 80.72075,85.98775 81.7895,86.881875 C82.857875,87.775375 84.233375,88.222625 85.9155,88.222625 C87.206,88.222625 88.36425,87.96875 89.391125,87.461 L89.391125,84.84275 C88.32225,85.61475 87.09475,86.001 85.7095,86.001 C84.84125,86.001 84.1485,85.789 83.630375,85.36625 C83.111875,84.942875 82.853,84.3985 82.853,83.731875 C82.853,83.01225 83.069375,82.451125 83.503375,82.04975 C83.8945,81.67925 84.7095,81.2295 85.94725,80.700625 C87.333,80.118125 88.3325,79.521 88.94675,78.90775 C89.74025,78.1245 90.13675,77.129875 90.13675,75.924375" id="path3078"></path>
                                <path d="M106.037625,79.669375 C106.037625,81.752875 105.566375,83.339875 104.6255,84.430125 C103.715375,85.4775 102.440375,86.001 100.80075,86.001 C99.182125,86.001 97.88575,85.471625 96.913125,84.414 C95.88625,83.28175 95.3735,81.67925 95.3735,79.606 C95.3735,77.65875 95.86575,76.138125 96.849625,75.0435 C97.8335,73.94825 99.150375,73.400875 100.80075,73.400875 C102.514625,73.400875 103.82075,73.9565 104.72075,75.066875 C105.598125,76.1465 106.037625,77.680125 106.037625,79.669375 Z M108.703625,79.764125 C108.703625,77.172375 107.973625,75.09325 106.513625,73.527875 C105.05375,71.961875 103.086,71.17925 100.610375,71.17925 C98.1665,71.17925 96.2305,71.961875 94.80225,73.527875 C93.40575,75.04 92.7075,77.034625 92.7075,79.51075 C92.7075,82.3355 93.501,84.5195 95.087875,86.0645 C96.558125,87.502875 98.525875,88.222625 100.99125,88.222625 C103.413625,88.222625 105.30475,87.47125 106.6645,85.96925 C108.023875,84.46675 108.703625,82.398875 108.703625,79.764125 L108.703625,79.764125 Z" id="path3080"></path>
                                <path d="M120.17725,93.348625 C119.669375,93.63425 119.09225,93.776875 118.44725,93.776875 C116.6275,93.776875 115.71775,92.628875 115.71775,90.3335 L115.71775,87.826125 L119.526375,87.826125 L119.526375,85.620125 L115.71775,85.620125 L115.71775,71.576125 L113.11525,71.576125 L113.11525,85.620125 L110.354,85.620125 L110.354,87.826125 L113.11525,87.826125 L113.11525,90.4605 C113.11525,92.248 113.670875,93.649875 114.78175,94.6655 C115.733875,95.5435 116.902375,95.982875 118.288625,95.982875 C119.09225,95.982875 119.721625,95.88775 120.17725,95.69725 L120.17725,93.348625" id="path3082"></path>
                                <path d="M130.445,71.734875 C129.83125,71.38575 129.01625,71.211 128.00125,71.211 C125.165,71.211 123.7475,72.809125 123.7475,76.003375 L123.7475,85.620125 L120.954625,85.620125 L120.954625,87.826125 L123.7475,87.826125 L123.7475,91.7935 C124.57275,92.057625 125.44125,92.337875 126.35125,92.63425 L126.35125,87.826125 L130.445,87.826125 L130.445,85.620125 L126.35125,85.620125 L126.35125,76.44775 C126.35125,75.357875 126.53625,74.583 126.90625,74.123 C127.27625,73.662625 127.895,73.432625 128.7625,73.432625 C129.4075,73.432625 129.96875,73.607375 130.445,73.9565 L130.445,71.734875" id="path3084"></path>
                                <path d="M52.700625,46.098625 C52.700625,47.504875 52.46625,48.772 51.9975,49.899875 C51.52875,51.027875 50.818375,52.002 49.86625,52.82225 C48.914,53.642625 47.734875,54.2725 46.328625,54.711875 C44.922375,55.151375 43.267125,55.371125 41.36275,55.371125 L33.013125,55.371125 L33.013125,35.463875 L41.187,35.463875 C42.974125,35.463875 44.578125,35.74225 45.999,36.298875 C47.419875,36.8555 48.628375,37.609875 49.6245,38.562 C50.620625,39.514125 51.382375,40.63475 51.909625,41.923875 C52.437,43.212875 52.700625,44.6045 52.700625,46.098625 L52.700625,46.098625 Z M54.150875,1.0986325 L46.504375,19.292 C45.391125,21.958 44.087375,23.855 42.59325,24.982875 C41.099125,26.110875 39.517125,26.67475 37.847125,26.67475 L33.013125,26.67475 L33.013125,1.0986325 L22.55425,1.0986325 L22.55425,64.11625 L42.900875,64.11625 C46.38725,64.11625 49.42675,63.706 52.0195,62.88575 C54.61225,62.065375 56.773,60.90825 58.5015,59.414 C60.23,57.919875 61.526375,56.13275 62.390625,54.05275 C63.254875,51.972625 63.687,49.65825 63.687,47.109375 C63.687,44.8535 63.357375,42.7735 62.69825,40.869125 C62.039,38.964875 61.108875,37.273 59.90775,35.7935 C58.7065,34.314 57.249,33.0615 55.535125,32.036125 C53.82125,31.01075 51.924375,30.234375 49.84425,29.707 L49.84425,29.53125 C50.576625,29.296875 51.287125,28.901375 51.975625,28.34475 C52.664,27.788125 53.315875,27.150875 53.931125,26.433125 C54.546375,25.715375 55.110375,24.94625 55.623,24.126 C56.13575,23.305625 56.5825,22.5 56.963375,21.709 L66.587375,1.0986325 L54.150875,1.0986325 L54.150875,1.0986325 Z" id="path3086"></path>
                                <path d="M96.538625,32.607375 C96.187,33.955125 95.623,35.119625 94.846625,36.101125 C94.07025,37.0825 93.0815,37.8515 91.880375,38.40825 C90.67925,38.964875 89.2295,39.243125 87.52975,39.243125 C86.152875,39.243125 84.8565,38.9795 83.640625,38.452125 C82.42475,37.92475 81.3335,37.17775 80.36675,36.211 C79.399875,35.244125 78.586875,34.086875 77.92775,32.73925 C77.2685,31.391625 76.807125,29.8975 76.5435,28.256875 L97.065875,28.256875 C97.065875,29.809625 96.890125,31.25975 96.538625,32.607375 L96.538625,32.607375 Z M76.5435,20.610375 C76.7485,16.538125 78.001,13.42525 80.30075,11.271975 C82.600625,9.11865 85.859875,8.0419875 90.078625,8.0419875 C92.598125,8.0419875 95.044375,8.444825 97.4175,9.2504875 C99.7905,10.05615 101.84125,11.0888625 103.569875,12.3486375 L103.569875,3.7793 C102.983875,3.3984375 102.192875,2.988275 101.19675,2.548825 C100.200625,2.109375 99.0215,1.699225 97.659125,1.3183625 C96.296875,0.9375 94.766125,0.62255875 93.066875,0.373535 C91.367625,0.12451175 89.55125,0 87.617625,0 C84.277875,0 81.28225,0.50537125 78.630875,1.5161125 C75.9795,2.52685 73.731,4.013675 71.88575,5.9765625 C70.0395,7.93945 68.618625,10.363775 67.6225,13.2495 C66.6265,16.13525 66.128375,19.4385 66.128375,23.159125 C66.128375,27.29 66.765625,30.86425 68.04,33.881875 C69.3145,36.899375 70.977,39.397 73.027875,41.3745 C75.078625,43.352 77.371125,44.816875 79.90525,45.769 C82.4395,46.72125 84.981,47.19725 87.52975,47.19725 C90.811,47.19725 93.682125,46.669875 96.143125,45.61525 C98.6045,44.5605 100.6475,43.088375 102.2735,41.19875 C103.899375,39.309125 105.1225,37.038625 105.942875,34.38725 C106.763125,31.735875 107.173375,28.828125 107.173375,25.664 L107.173375,20.610375 L76.5435,20.610375 L76.5435,20.610375 Z" id="path3088"></path>
                                <path d="M140.9925,13.974625 C140.9925,12.0410125 140.6125,10.2246125 139.85,8.5253875 C139.08875,6.826175 137.96125,5.346675 136.46625,4.0869125 C134.9725,2.82715 133.105,1.83105 130.86375,1.0986325 C128.6225,0.36621125 126.0225,0 123.063,0 C122.242625,0 121.305125,0.065918 120.2505,0.19775375 C119.19575,0.32959 118.1265,0.50537125 117.0425,0.7250975 C115.9585,0.94482375 114.911125,1.2011725 113.900375,1.4941375 C112.889625,1.7871125 112.018125,2.109375 111.285625,2.4609375 L111.285625,12.17285 C112.223125,11.499025 113.21925,10.8984375 114.273875,10.3711 C115.328625,9.84375 116.398,9.4043 117.481875,9.0527375 C118.565875,8.701175 119.620625,8.430175 120.646,8.23975 C121.671375,8.0493125 122.608875,7.9541 123.4585,7.9541 C126.0075,7.9541 127.86125,8.39355 129.0175,9.2724625 C130.175,10.1513625 130.75375,11.3232375 130.75375,12.788125 C130.75375,13.54975 130.64375,14.21625 130.42375,14.787625 C130.205,15.358875 129.78,15.9155 129.15,16.4575 C128.52,16.9995 127.63375,17.5635 126.49125,18.149375 C125.34875,18.735375 123.854,19.409125 122.00825,20.170875 C120.367625,20.874 118.880875,21.61375 117.547875,22.390125 C116.214875,23.1665 115.086875,24.067375 114.164,25.09275 C113.24125,26.118125 112.53075,27.30475 112.03275,28.652375 C111.534625,30 111.285625,31.611375 111.285625,33.486375 C111.285625,35.419875 111.681125,37.221625 112.472125,38.891625 C113.263125,40.5615 114.40575,42.01175 115.899875,43.24225 C117.394,44.472625 119.203125,45.4395 121.327125,46.142625 C123.451125,46.84575 125.8325,47.19725 128.46875,47.19725 C129.40625,47.19725 130.35125,47.138625 131.3025,47.0215 C132.255,46.90425 133.1775,46.75775 134.07125,46.582 C134.965,46.40625 135.8,46.2085 136.57625,45.98875 C137.3525,45.769 138.02,45.542 138.57625,45.307625 L138.57625,36.123 C137.8725,36.59175 137.10375,37.016625 136.26875,37.3975 C135.43375,37.778375 134.5625,38.107875 133.65375,38.38625 C132.74625,38.6645 131.82375,38.877 130.88625,39.0235 C129.94875,39.169875 129.025,39.243125 128.1175,39.243125 C126.095,39.243125 124.4985,38.789 123.326625,37.880875 C122.15475,36.972625 121.568875,35.815375 121.568875,34.409125 C121.568875,33.53025 121.693375,32.775875 121.942375,32.146 C122.191375,31.516125 122.6235,30.944875 123.23875,30.432125 C123.854,29.919375 124.667,29.421375 125.6775,28.938 C126.68875,28.454625 127.95625,27.90525 129.48,27.29 C131.14875,26.61625 132.6875,25.88375 134.09375,25.09275 C135.5,24.30175 136.71625,23.38625 137.74125,22.34625 C138.76625,21.306125 139.565,20.105 140.13625,18.742625 C140.7075,17.380375 140.9925,15.791 140.9925,13.974625" id="path3090"></path>
                                <path d="M175.2075,32.607375 C174.855,33.955125 174.29125,35.119625 173.515,36.101125 C172.73875,37.0825 171.75,37.8515 170.54875,38.40825 C169.3475,38.964875 167.8975,39.243125 166.1975,39.243125 C164.82125,39.243125 163.525,38.9795 162.30875,38.452125 C161.09375,37.92475 160.00125,37.17775 159.035,36.211 C158.06875,35.244125 157.255,34.086875 156.59625,32.73925 C155.9375,31.391625 155.475,29.8975 155.21125,28.256875 L175.73375,28.256875 C175.73375,29.809625 175.55875,31.25975 175.2075,32.607375 L175.2075,32.607375 Z M155.21125,20.610375 C155.4175,16.538125 156.66875,13.42525 158.96875,11.271975 C161.26875,9.11865 164.52875,8.0419875 168.7475,8.0419875 C171.26625,8.0419875 173.7125,8.444825 176.08625,9.2504875 C178.45875,10.05615 180.51,11.0888625 182.23875,12.3486375 L182.23875,3.7793 C181.6525,3.3984375 180.86125,2.988275 179.865,2.548825 C178.86875,2.109375 177.69,1.699225 176.3275,1.3183625 C174.965,0.9375 173.435,0.62255875 171.735,0.373535 C170.03625,0.12451175 168.22,0 166.28625,0 C162.94625,0 159.95,0.50537125 157.29875,1.5161125 C154.6475,2.52685 152.39875,4.013675 150.55375,5.9765625 C148.7075,7.93945 147.2875,10.363775 146.29125,13.2495 C145.295,16.13525 144.79625,19.4385 144.79625,23.159125 C144.79625,27.29 145.43375,30.86425 146.70875,33.881875 C147.9825,36.899375 149.645,39.397 151.69625,41.3745 C153.7475,43.352 156.04,44.816875 158.57375,45.769 C161.1075,46.72125 163.64875,47.19725 166.1975,47.19725 C169.48,47.19725 172.35,46.669875 174.81125,45.61525 C177.2725,44.5605 179.31625,43.088375 180.94125,41.19875 C182.5675,39.309125 183.79125,37.038625 184.61125,34.38725 C185.43125,31.735875 185.84125,28.828125 185.84125,25.664 L185.84125,20.610375 L155.21125,20.610375 L155.21125,20.610375 Z" id="path3092"></path>
                                <path d="M207.0475,21.709 C205.3775,21.503875 204.015,21.19625 202.96125,20.786125 C201.90625,20.376 201.07875,19.86325 200.4775,19.248 C199.8775,18.63275 199.46,17.92975 199.225,17.138625 C198.99125,16.347625 198.87375,15.4395 198.87375,14.414 C198.87375,13.505875 199.05,12.65625 199.40125,11.8652375 C199.7525,11.074225 200.25125,10.4003875 200.895,9.84375 C201.54,9.2871125 202.32375,8.84765 203.24625,8.5253875 C204.16875,8.203125 205.2025,8.0419875 206.345,8.0419875 C207.92625,8.0419875 209.355,8.3276375 210.62875,8.898925 C211.90375,9.4702125 212.995,10.2465875 213.90375,11.228025 C214.81125,12.209475 215.515,13.359375 216.0125,14.67775 C216.51,15.996125 216.76,17.417 216.76,18.940375 L216.76,22.983375 L207.0475,21.709 Z M216.67125,1.0986325 L216.67125,7.294925 L216.49625,7.294925 C214.9725,4.921875 213.105,3.1127875 210.8925,1.867675 C208.68125,0.62255875 206.11,0 203.18,0 C200.895,0 198.85875,0.32959 197.0725,0.98877 C195.285,1.64795 193.79125,2.563475 192.59,3.73535 C191.38875,4.907225 190.4725,6.313475 189.84375,7.9541 C189.21375,9.594725 188.89875,11.3964875 188.89875,13.359375 C188.89875,15.293 189.17625,17.09475 189.73375,18.764625 C190.29,20.434625 191.16125,21.921375 192.3475,23.225125 C193.535,24.52875 195.0575,25.61275 196.91875,26.477 C198.77875,27.34125 201.0125,27.934625 203.62,28.256875 L216.76,30.058625 C216.76,33.28125 216.02,35.617625 214.54,37.067875 C213.06125,38.518125 210.95875,39.243125 208.23375,39.243125 C205.51,39.243125 202.84375,38.789 200.23625,37.880875 C197.62875,36.972625 195.31375,35.756875 193.2925,34.233375 L193.2925,43.19825 C193.9375,43.608375 194.845,44.047875 196.0175,44.516625 C197.18875,44.985375 198.5075,45.4175 199.9725,45.813 C201.4375,46.2085 202.975,46.538125 204.58625,46.80175 C206.1975,47.065375 207.765,47.19725 209.28875,47.19725 C212.2775,47.19725 214.8625,46.80175 217.045,46.01075 C219.2275,45.21975 221.03,44.069875 222.45,42.561 C223.87125,41.05225 224.93375,39.213875 225.63625,37.045875 C226.34,34.877875 226.69125,32.402375 226.69125,29.619125 L226.69125,1.0986325 L216.67125,1.0986325 L216.67125,1.0986325 Z" id="path3094"></path>
                                <path d="M260.4,36.78225 C259.94625,36.958 259.455,37.119125 258.9275,37.265625 C258.4,37.412125 257.85125,37.52925 257.28,37.61725 C256.70875,37.705125 256.15875,37.749 255.63125,37.749 C254.225,37.749 252.92125,37.441375 251.72,36.826125 C250.52,36.211 249.48,35.317375 248.6,34.1455 C247.72125,32.973625 247.02625,31.545375 246.5125,29.860875 C246,28.17625 245.74375,26.264625 245.74375,24.126 L245.74375,1.0986325 L235.5925,1.0986325 L235.5925,46.098625 L245.74375,46.098625 L245.74375,37.3535 L245.92,37.3535 C246.47625,39.0235 247.1725,40.459 248.0075,41.660125 C248.8425,42.861375 249.765,43.850125 250.77625,44.6265 C251.78625,45.402875 252.85625,45.974125 253.98375,46.340375 C255.11125,46.7065 256.26125,46.889625 257.43375,46.889625 C258.195,46.889625 258.9275,46.84575 259.63125,46.75775 C260.33375,46.669875 260.96375,46.50875 261.52,46.274375 L261.52,36.211 C261.2275,36.416 260.85375,36.6065 260.4,36.78225" id="path3096"></path>
                                <path d="M290.9,0.81298875 C288.82,0.27099625 286.37375,0 283.56125,0 C280.1625,0 277.08625,0.563965 274.3325,1.6919 C271.57875,2.819825 269.235,4.3872125 267.30125,6.3940375 C265.3675,8.400875 263.87375,10.773925 262.81875,13.513125 C261.765,16.2525 261.2375,19.21875 261.2375,22.412125 C261.2375,26.162125 261.80125,29.5605 262.92875,32.607375 C264.0575,35.65425 265.67625,38.254375 267.785,40.40775 C269.895,42.561 272.45,44.231 275.45375,45.4175 C278.45625,46.604 281.81875,47.19725 285.53875,47.19725 C286.74,47.19725 287.8825,47.124 288.96625,46.9775 C290.05125,46.831 291.06125,46.648 291.99875,46.42825 C292.93625,46.2085 293.77875,45.96675 294.52625,45.703125 C295.2725,45.4395 295.88125,45.17575 296.35,44.912125 L296.35,35.288125 C294.885,36.372125 293.295,37.243625 291.58125,37.902875 C289.8675,38.562 288,38.891625 285.97875,38.891625 C283.98625,38.891625 282.12625,38.547375 280.3975,37.858875 C278.66875,37.170375 277.1675,36.167 275.8925,34.848625 C274.61875,33.53025 273.615,31.90425 272.8825,29.97075 C272.15,28.037125 271.78375,25.82525 271.78375,23.335 C271.78375,21.0205 272.10625,18.933125 272.75125,17.07275 C273.395,15.212375 274.31875,13.63775 275.52,12.3486375 C276.72,11.059575 278.185,10.063475 279.91375,9.36035 C281.6425,8.657225 283.605,8.3056625 285.8025,8.3056625 C286.68125,8.3056625 287.59,8.4082 288.5275,8.613275 C289.465,8.8183625 290.395,9.08935 291.3175,9.426275 C292.24,9.7631875 293.12625,10.1586875 293.97625,10.6127875 C294.82625,11.0669 295.6175,11.5576125 296.35,12.0849625 L296.35,2.988275 C294.79625,2.080075 292.98,1.354975 290.9,0.81298875" id="path3098"></path>
                                <path d="M333.7725,1.0986325 L333.7725,26.586875 C333.7725,30.629875 333.09125,33.691375 331.72875,35.7715 C330.36625,37.8515 328.11875,38.891625 324.98375,38.891625 C323.28375,38.891625 321.775,38.55475 320.4575,37.880875 C319.13875,37.207 318.025,36.3135 317.1175,35.20025 C316.20875,34.086875 315.52125,32.805125 315.0525,31.355 C314.58375,29.90475 314.34875,28.403375 314.34875,26.850625 L314.34875,1.0986325 L304.1975,1.0986325 L304.1975,67.71975 L314.34875,67.71975 L314.34875,39.067375 L314.525,39.067375 C315.28625,40.297875 316.14375,41.411125 317.095,42.40725 C318.0475,43.403375 319.11625,44.252875 320.30375,44.956 C321.49,45.659125 322.78625,46.2085 324.1925,46.604 C325.59875,46.9995 327.15125,47.19725 328.85125,47.19725 C333.7725,47.19725 337.5375,45.6225 340.145,42.473125 C342.7525,39.32375 344.05625,34.746125 344.05625,28.74025 L344.05625,1.0986325 L333.7725,1.0986325" id="path3100"></path>
                            </g>
                        </g>
                    </g>
                </g>
            </g>
        </g>
    </g>
</svg>