<?xml version="1.0" encoding="UTF-8"?>
<svg width="270px" height="60px" viewBox="0 0 270 60" version="1.1" xmlns="http://www.w3.org/2000/svg" xmlns:xlink="http://www.w3.org/1999/xlink">
    <!-- Generator: Sketch 44.1 (41455) - http://www.bohemiancoding.com/sketch -->
    <title>upc-logo</title>
    <desc>Created with Sketch.</desc>
    <defs></defs>
    <g id="Page-1" stroke="none" stroke-width="1" fill="none" fill-rule="evenodd">
        <g id="upc-logo" fill-rule="nonzero" fill="#FFFFFF">
            <path d="M30,0 C46.6,0 60.1,13.4 60,30 C60,46.6 46.6,60 30,60 C13.4,60 0,46.6 0,30 C0,13.4 13.4,0 30,0 Z M30.2,8.4 C27.8,8.4 25.9,10.4 25.9,12.7 C25.9,15.1 27.8,17 30.2,17 C32.6,17 34.5,15.1 34.5,12.7 C34.5,10.3 32.6,8.4 30.2,8.4 Z M30.2,18.6 C27.8,18.6 25.9,20.5 25.9,22.9 C25.9,25.3 27.8,27.2 30.2,27.2 C32.6,27.2 34.5,25.3 34.5,22.9 C34.5,20.5 32.6,18.6 30.2,18.6 Z M19.7,8.4 C17.4,8.4 15.4,10.4 15.4,12.7 C15.4,15.1 17.3,17 19.7,17 C22.1,17 24,15.1 24,12.7 C24,10.3 22.1,8.4 19.7,8.4 Z M19.7,19.6 C17.4,19.6 15.4,21.5 15.4,23.9 C15.4,26.3 17.3,28.2 19.7,28.2 C22.1,28.2 24,26.3 24,23.9 C24,21.5 22.1,19.6 19.7,19.6 Z M19.7,29 C17.4,29 15.4,31 15.4,33.3 C15.4,35.7 17.3,37.6 19.7,37.6 C22.1,37.6 24,35.7 24,33.3 C24,30.9 22.1,29 19.7,29 Z M24.8,47.3 L24.8,47.3 L24.9,47.3 L24.9,41.3 L22,41.3 L22,47.3 C22,47.9 21.9,48.3 21.5,48.7 C21.2,48.9 20.9,49 20.5,49 C20.1,49 19.8,49 19.5,48.7 C19.1,48.3 19,47.9 19,47.3 L19,41.3 L16.2,41.3 L16.2,47.3 C16.2,48.3 16.2,49.6 17.6,50.6 C18.5,51.3 19.5,51.4 20.5,51.4 C21.4,51.4 22.5,51.2 23.4,50.6 C24.8,49.7 24.8,48.4 24.8,47.3 Z M30.2,29 L30.2,29 C27.8,29 25.9,31 25.9,33.3 C25.9,35.7 27.8,37.6 30.2,37.6 C32.6,37.6 34.5,35.7 34.5,33.3 C34.5,30.9 32.6,29 30.2,29 Z M33.2,47.4 C34,46.8 34.5,45.8 34.6,44.6 C34.6,42.4 33.3,41.2 31.3,41.2 L27.1,41.2 L27.1,51.1 L29.6,51.1 L29.6,47.9 L30.4,47.9 C32,47.9 32.6,47.8 33.2,47.4 Z M43.6,44.2 L43.7,41.7 C42.8,41.2 42.2,41.1 41.3,41.1 C38.4,41.1 36.2,43.3 36.2,46.3 C36.2,49.3 38.3,51.4 41.3,51.4 C42.2,51.4 42.8,51.3 43.7,50.8 L43.7,48.2 C42.8,48.9 42.4,49 41.6,49 C40.1,49 39,47.8 39,46.2 C39,44.5 40,43.4 41.5,43.4 C42.2,43.4 42.6,43.4 43.6,44.2 Z M40.3,37.6 C42.7,37.6 44.6,35.7 44.6,33.3 C44.6,30.9 42.7,29 40.3,29 C38,29 36,31 36,33.3 C36,35.7 37.9,37.6 40.3,37.6 Z M40.3,27.2 C42.7,27.2 44.6,25.3 44.6,22.9 C44.6,20.5 42.7,18.6 40.3,18.6 C37.9,18.6 36,20.5 36,22.9 C36,25.3 37.9,27.2 40.3,27.2 Z M40.3,17 C42.7,17 44.6,15.1 44.6,12.7 C44.6,10.3 42.7,8.4 40.3,8.4 C37.9,8.4 36,10.3 36,12.7 C36,15.1 38,17 40.3,17 Z M30.8,45.7 L29.7,45.7 L29.7,43.4 L30.8,43.4 C31.6,43.4 31.8,43.9 31.9,44.5 C31.8,45.1 31.5,45.7 30.8,45.7 L30.8,45.7 Z M75.8,33.1 L79.4,33.1 C80.7,33.1 81.7,32.7 82.4,32 C83.1,31.3 83.5,30.2 83.5,28.9 C83.5,27.6 83.1,26.6 82.4,25.8 C81.7,25.1 80.7,24.7 79.4,24.7 L75.8,24.7 L75.8,33.1 L75.8,33.1 Z M78,26.6 L79,26.6 C79.7,26.6 80.3,26.8 80.7,27.2 C81.1,27.6 81.3,28.1 81.3,28.9 C81.3,29.7 81.1,30.3 80.8,30.7 C80.4,31.1 79.8,31.3 79,31.3 L78,31.3 L78,26.6 L78,26.6 Z M86.2,33.1 L93,33.1 L93,31.2 L88.3,31.2 L88.3,29.6 L92.5,29.6 L92.5,27.9 L88.3,27.9 L88.3,26.4 L92.8,26.4 L92.8,24.7 L86.2,24.7 L86.2,33.1 Z M108.5,27.7 C108.5,27 108.3,26.5 107.9,26 C107.5,25.5 107,25.2 106.5,24.9 C105.9,24.7 105.3,24.5 104.7,24.5 C103.8,24.5 103.1,24.7 102.5,25.1 C101.9,25.5 101.4,26 101.1,26.7 C100.8,27.4 100.6,28.1 100.6,28.9 C100.6,29.7 100.8,30.5 101.1,31.1 C101.4,31.8 101.9,32.3 102.5,32.7 C103.1,33.1 103.9,33.3 104.7,33.3 C105.8,33.3 106.7,33 107.4,32.4 C108.1,31.8 108.5,31 108.6,29.9 L106.4,29.9 C106.4,30.4 106.2,30.8 105.9,31 C105.6,31.3 105.2,31.4 104.7,31.4 C104.2,31.4 103.9,31.3 103.6,31 C103.3,30.8 103.1,30.5 103,30.1 C102.9,29.7 102.8,29.3 102.8,28.9 C102.8,28.5 102.9,28.1 103,27.7 C103.1,27.3 103.3,27 103.6,26.8 C103.9,26.6 104.3,26.4 104.7,26.4 C105.2,26.4 105.5,26.5 105.8,26.7 C106.1,26.9 106.3,27.2 106.3,27.7 L108.5,27.7 L108.5,27.7 Z M114.4,27 L115.4,29.9 L113.5,29.9 L114.4,27 L114.4,27 Z M110.2,33.1 L112.4,33.1 L112.9,31.6 L115.8,31.6 L116.3,33.1 L118.6,33.1 L115.5,24.7 L113.3,24.7 L110.2,33.1 L110.2,33.1 Z M126.5,24.7 L119.3,24.7 L119.3,26.6 L121.8,26.6 L121.8,33.1 L124,33.1 L124,26.6 L126.5,26.6 L126.5,24.7 Z M131.3,27 L132.3,29.9 L130.4,29.9 L131.3,27 L131.3,27 Z M127.1,33.1 L129.3,33.1 L129.8,31.6 L132.7,31.6 L133.2,33.1 L135.5,33.1 L132.4,24.7 L130.2,24.7 L127.1,33.1 L127.1,33.1 Z M137.6,33.1 L143.7,33.1 L143.7,31.2 L139.8,31.2 L139.8,24.7 L137.6,24.7 L137.6,33.1 Z M153.4,24.7 L151.2,24.7 L151.2,29.8 C151.2,30.3 151.1,30.7 150.9,31 C150.7,31.3 150.3,31.4 149.8,31.4 C149.3,31.4 148.9,31.3 148.7,31 C148.5,30.7 148.4,30.3 148.4,29.8 L148.4,24.7 L146.2,24.7 L146.2,29.6 C146.2,30.8 146.5,31.7 147.1,32.3 C147.7,32.9 148.6,33.2 149.9,33.2 C151.2,33.2 152.1,32.9 152.7,32.3 C153.3,31.7 153.6,30.8 153.6,29.6 L153.6,24.7 L153.4,24.7 L153.4,24.7 Z M156.3,33.1 L158.3,33.1 L158.3,27.8 L161.3,33.1 L163.5,33.1 L163.5,24.7 L161.4,24.7 L161.4,29.9 L158.5,24.7 L156.3,24.7 L156.3,33.1 L156.3,33.1 Z M173.7,24.7 L171.2,24.7 L169.6,28.1 L167.9,24.7 L165.4,24.7 L168.5,29.9 L168.5,33.1 L170.7,33.1 L170.7,29.9 L173.7,24.7 L173.7,24.7 Z M178.3,27 L179.3,29.9 L177.4,29.9 L178.3,27 L178.3,27 Z M174,33.1 L176.2,33.1 L176.7,31.6 L179.6,31.6 L180.1,33.1 L182.4,33.1 L179.3,24.7 L177.1,24.7 L174,33.1 L174,33.1 Z M83.1,8.7 L80.9,8.7 L80.9,13.8 C80.9,14.3 80.8,14.7 80.6,15 C80.4,15.3 80,15.4 79.5,15.4 C79,15.4 78.6,15.3 78.4,15 C78.2,14.7 78.1,14.3 78.1,13.8 L78.1,8.7 L75.9,8.7 L75.9,13.6 C75.9,14.8 76.2,15.7 76.8,16.3 C77.4,16.9 78.3,17.2 79.6,17.2 C80.9,17.2 81.8,16.9 82.4,16.3 C83,15.7 83.3,14.8 83.3,13.6 L83.3,8.7 L83.1,8.7 L83.1,8.7 Z M85.9,17.1 L88,17.1 L88,11.9 L90.9,17.1 L93.2,17.1 L93.2,8.7 L91.1,8.7 L91.1,13.9 L88.2,8.7 L85.9,8.7 L85.9,17.1 Z M96.1,8.7 L98.3,8.7 L98.3,17.1 L96.1,17.1 L96.1,8.7 Z M108.1,8.7 L105.9,8.7 L104.2,15 L102.6,8.7 L100.3,8.7 L102.9,17.1 L105.4,17.1 L108.1,8.7 Z M110.2,17.1 L117,17.1 L117,15.3 L112.4,15.3 L112.4,13.7 L116.5,13.7 L116.5,12 L112.4,12 L112.4,10.5 L116.9,10.5 L116.9,8.7 L110.2,8.7 L110.2,17.1 Z M119.6,17.1 L121.8,17.1 L121.8,14 L123.5,14 C124,14 124.3,14.2 124.5,14.5 C124.7,14.8 124.7,15.2 124.7,15.7 L124.7,16.1 C124.7,16.3 124.7,16.4 124.8,16.6 C124.8,16.8 124.9,16.9 124.9,17 L127.1,17 C127,16.9 126.9,16.7 126.9,16.5 L126.8,15.7 L126.8,15.1 C126.8,14.8 126.7,14.6 126.6,14.3 C126.5,14 126.4,13.8 126.2,13.6 C126,13.4 125.8,13.2 125.5,13.2 C125.9,13 126.3,12.7 126.5,12.4 C126.7,12 126.8,11.6 126.8,11.1 C126.8,10.5 126.6,10.1 126.4,9.7 C126.1,9.4 125.8,9.1 125.3,8.9 C124.9,8.7 124.4,8.7 123.9,8.7 L119.6,8.7 L119.6,17.1 L119.6,17.1 Z M121.8,10.5 L123.5,10.5 C123.8,10.5 124.1,10.6 124.3,10.7 C124.5,10.8 124.6,11.1 124.6,11.4 C124.6,11.7 124.5,12 124.3,12.1 C124.1,12.3 123.9,12.4 123.5,12.4 L121.7,12.4 L121.8,10.5 Z M129,14.3 C129,15 129.2,15.6 129.5,16 C129.8,16.4 130.3,16.8 130.8,17 C131.3,17.2 131.9,17.3 132.6,17.3 C133.2,17.3 133.8,17.2 134.4,17 C135,16.8 135.4,16.5 135.7,16.1 C136,15.7 136.2,15.1 136.2,14.4 C136.2,13.9 136.1,13.5 135.8,13.2 C135.6,12.9 135.3,12.6 134.9,12.4 C134.5,12.2 134.1,12.1 133.7,12 L132.5,11.7 C132.1,11.6 131.8,11.5 131.6,11.4 C131.4,11.3 131.2,11.1 131.2,10.9 C131.2,10.6 131.3,10.4 131.6,10.3 C131.8,10.2 132.1,10.1 132.3,10.1 C132.7,10.1 133,10.2 133.2,10.3 C133.5,10.5 133.6,10.7 133.6,11.1 L135.8,11.1 C135.8,10.5 135.6,10 135.3,9.6 C135,9.2 134.6,8.9 134.1,8.7 C133.6,8.5 133.1,8.4 132.5,8.4 C132,8.4 131.4,8.5 130.9,8.7 C130.4,8.9 129.9,9.1 129.6,9.5 C129.3,9.9 129.1,10.4 129.1,11 C129.1,11.5 129.2,11.9 129.5,12.2 C129.7,12.5 130,12.8 130.4,12.9 C130.8,13.1 131.2,13.2 131.6,13.3 L132.8,13.6 C133.2,13.7 133.5,13.8 133.7,13.9 C133.9,14 134,14.2 134.1,14.5 C134.1,14.8 133.9,15 133.7,15.2 C133.4,15.3 133.1,15.4 132.8,15.4 C132.3,15.4 132,15.3 131.7,15.1 C131.4,14.9 131.3,14.6 131.2,14.1 L129,14.3 L129,14.3 Z M138.8,8.7 L141,8.7 L141,17.1 L138.8,17.1 L138.8,8.7 Z M150.5,8.7 L143.3,8.7 L143.3,10.6 L145.8,10.6 L145.8,17.1 L148,17.1 L148,10.6 L150.5,10.6 L150.5,8.7 Z M155.3,11.1 L156.3,14 L154.4,14 L155.3,11.1 Z M151.1,17.1 L153.3,17.1 L153.8,15.6 L156.7,15.6 L157.2,17.1 L159.5,17.1 L156.4,8.7 L154.2,8.7 L151.1,17.1 L151.1,17.1 Z M167.4,8.7 L160.2,8.7 L160.2,10.6 L162.7,10.6 L162.7,17.1 L164.9,17.1 L164.9,10.6 L167.4,10.6 L167.4,8.7 Z M174,17.1 L176.2,17.1 L176.2,14.3 L178,14.3 C178.9,14.3 179.7,14.1 180.2,13.6 C180.7,13.1 181,12.4 181,11.4 C181,10.7 180.8,10.2 180.6,9.8 C180.3,9.4 179.9,9.1 179.5,8.9 C179,8.7 178.5,8.6 178,8.6 L174,8.6 L174,17.1 Z M176.2,10.5 L177.7,10.5 C178,10.5 178.3,10.6 178.5,10.8 C178.7,11 178.8,11.3 178.8,11.6 C178.8,12 178.7,12.2 178.5,12.4 C178.3,12.6 178,12.6 177.7,12.6 L176.2,12.6 L176.2,10.5 Z M183.1,12.9 C183.1,13.7 183.3,14.5 183.6,15.1 C183.9,15.8 184.4,16.3 185,16.7 C185.6,17.1 186.4,17.3 187.2,17.3 C188.1,17.3 188.8,17.1 189.4,16.7 C190,16.3 190.5,15.8 190.8,15.1 C191.1,14.4 191.3,13.7 191.3,12.9 C191.3,12.1 191.1,11.3 190.8,10.7 C190.5,10 190,9.5 189.4,9.1 C188.8,8.7 188,8.5 187.2,8.5 C186.3,8.5 185.6,8.7 185,9.1 C184.4,9.5 183.9,10 183.6,10.7 C183.3,11.4 183.1,12.1 183.1,12.9 Z M185.3,12.9 C185.3,12.5 185.4,12.1 185.5,11.7 C185.6,11.3 185.8,11 186.1,10.8 C186.4,10.6 186.8,10.4 187.2,10.4 C187.7,10.4 188,10.5 188.3,10.8 C188.6,11 188.8,11.3 188.9,11.7 C189,12.1 189.1,12.5 189.1,12.9 C189.1,13.3 189,13.7 188.9,14.1 C188.8,14.5 188.6,14.8 188.3,15 C188,15.2 187.6,15.4 187.2,15.4 C186.7,15.4 186.4,15.3 186.1,15 C185.8,14.8 185.6,14.5 185.5,14.1 C185.4,13.7 185.3,13.4 185.3,12.9 Z M194,17.1 L200.1,17.1 L200.1,15.3 L196.2,15.3 L196.2,8.7 L194,8.7 L194,17.1 Z M202.6,8.7 L204.8,8.7 L204.8,17.1 L202.6,17.1 L202.6,8.7 Z M214.3,8.7 L207.1,8.7 L207.1,10.6 L209.6,10.6 L209.6,17.1 L211.8,17.1 L211.8,10.6 L214.3,10.6 L214.3,8.7 Z M219.9,6.5 L217.8,6.5 L219.6,8.2 L221,8.2 L219.9,6.5 L219.9,6.5 Z M216.7,17.1 L223.5,17.1 L223.5,15.2 L218.9,15.2 L218.9,13.6 L223,13.6 L223,12 L218.9,12 L218.9,10.5 L223.4,10.5 L223.4,8.8 L216.7,8.8 L216.7,17.1 L216.7,17.1 Z M233.9,11.7 C233.9,11 233.7,10.5 233.3,10 C232.9,9.5 232.4,9.2 231.9,8.9 C231.3,8.7 230.7,8.5 230.1,8.5 C229.2,8.5 228.5,8.7 227.9,9.1 C227.3,9.5 226.8,10 226.5,10.7 C226.2,11.4 226,12.1 226,12.9 C226,13.7 226.2,14.5 226.5,15.1 C226.8,15.8 227.3,16.3 227.9,16.7 C228.5,17.1 229.3,17.3 230.1,17.3 C231.2,17.3 232.1,17 232.8,16.4 C233.5,15.8 233.9,15 234,13.9 L231.8,13.9 C231.8,14.4 231.6,14.8 231.3,15 C231,15.3 230.6,15.4 230.1,15.4 C229.6,15.4 229.3,15.3 229,15 C228.7,14.8 228.5,14.5 228.4,14.1 C228.3,13.7 228.2,13.3 228.2,12.9 C228.2,12.5 228.3,12.1 228.4,11.7 C228.5,11.3 228.7,11 229,10.8 C229.3,10.6 229.7,10.4 230.1,10.4 C230.6,10.4 230.9,10.5 231.2,10.7 C231.5,10.9 231.7,11.2 231.7,11.7 L233.9,11.7 L233.9,11.7 Z M236.4,17.1 L238.5,17.1 L238.5,11.9 L241.4,17.1 L243.7,17.1 L243.7,8.7 L241.6,8.7 L241.6,13.9 L238.7,8.7 L236.4,8.7 L236.4,17.1 Z M246.6,8.7 L248.8,8.7 L248.8,17.1 L246.6,17.1 L246.6,8.7 Z M259.4,11.7 C259.4,11 259.2,10.5 258.8,10 C258.4,9.5 257.9,9.2 257.4,8.9 C256.8,8.7 256.2,8.5 255.6,8.5 C254.8,8.5 254,8.7 253.4,9.1 C252.8,9.5 252.3,10 252,10.7 C251.7,11.4 251.5,12.1 251.5,12.9 C251.5,13.7 251.7,14.5 252,15.1 C252.3,15.8 252.8,16.3 253.4,16.7 C254,17.1 254.8,17.3 255.6,17.3 C256.7,17.3 257.6,17 258.3,16.4 C259,15.8 259.4,15 259.5,13.9 L257.3,13.9 C257.3,14.4 257.1,14.8 256.8,15 C256.5,15.3 256.1,15.4 255.6,15.4 C255.1,15.4 254.8,15.3 254.5,15 C254.2,14.8 254,14.5 253.9,14.1 C253.8,13.7 253.7,13.3 253.7,12.9 C253.7,12.5 253.8,12.1 253.9,11.7 C254,11.3 254.2,11 254.5,10.8 C254.8,10.6 255.2,10.4 255.6,10.4 C256.1,10.4 256.4,10.5 256.7,10.7 C257,10.9 257.2,11.2 257.2,11.7 L259.4,11.7 L259.4,11.7 Z M265.4,11.1 L266.4,14 L264.5,14 L265.4,11.1 Z M261.1,17.1 L263.3,17.1 L263.8,15.6 L266.7,15.6 L267.2,17.1 L269.5,17.1 L266.4,8.7 L264.2,8.7 L261.1,17.1 L261.1,17.1 Z M75.8,50.5 L75.8,40.8 L79.4,40.8 C80.1,40.8 80.7,40.9 81.2,41.1 C81.6,41.3 82,41.6 82.2,42 C82.5,42.4 82.6,42.8 82.6,43.3 C82.6,43.7 82.5,44.1 82.3,44.5 C82.1,44.9 81.7,45.2 81.3,45.4 C81.9,45.6 82.3,45.9 82.7,46.3 C83,46.7 83.2,47.2 83.2,47.8 C83.2,48.3 83.1,48.7 82.9,49.1 C82.7,49.5 82.5,49.8 82.2,50 C81.9,50.2 81.6,50.4 81.1,50.5 C80.7,50.6 80.2,50.7 79.5,50.7 L75.8,50.7 L75.8,50.5 L75.8,50.5 Z M77.1,44.9 L79.2,44.9 C79.8,44.9 80.2,44.9 80.4,44.8 C80.7,44.7 81,44.5 81.1,44.3 C81.3,44.1 81.3,43.8 81.3,43.5 C81.3,43.2 81.2,42.9 81.1,42.7 C80.9,42.5 80.7,42.3 80.4,42.2 C80.1,42.1 79.6,42.1 78.9,42.1 L77,42.1 L77,44.9 L77.1,44.9 L77.1,44.9 Z M77.1,49.3 L80.4,49.3 C80.7,49.2 80.9,49.2 81.1,49 C81.3,48.9 81.5,48.7 81.6,48.5 C81.7,48.3 81.8,48 81.8,47.7 C81.8,47.3 81.7,47 81.5,46.8 C81.3,46.5 81.1,46.3 80.7,46.2 C80.4,46.1 79.9,46 79.3,46 L77.1,46 L77.1,49.3 Z M83.8,50.5 L87.5,40.8 L88.9,40.8 L92.9,50.5 L91.4,50.5 L90.3,47.6 L86.3,47.6 L85.2,50.5 L83.8,50.5 L83.8,50.5 Z M86.6,46.5 L89.9,46.5 L88.9,43.8 L88.2,41.8 C88.1,42.4 87.9,43 87.7,43.6 L86.6,46.5 L86.6,46.5 Z M93.9,50.5 L93.9,40.8 L98.2,40.8 C99.1,40.8 99.7,40.9 100.2,41.1 C100.6,41.3 101,41.6 101.3,42 C101.6,42.4 101.7,42.9 101.7,43.5 C101.7,44.2 101.5,44.8 101,45.2 C100.6,45.7 99.9,46 98.9,46.1 C99.2,46.3 99.5,46.4 99.7,46.6 C100.1,46.9 100.4,47.4 100.8,47.9 L102.5,50.5 L100.9,50.5 L99.6,48.5 C99.2,47.9 98.9,47.5 98.7,47.2 C98.5,46.9 98.2,46.7 98,46.6 L97.4,46.3 L95.2,46.3 L95.2,50.6 L93.9,50.6 L93.9,50.5 Z M95.2,45.1 L98,45.1 C98.6,45.1 99,45 99.4,44.9 C99.7,44.8 100,44.6 100.2,44.3 C100.4,44 100.5,43.7 100.5,43.4 C100.5,42.9 100.3,42.6 100,42.3 C99.7,42 99.1,41.9 98.4,41.9 L95.3,41.9 L95.3,45.1 L95.2,45.1 L95.2,45.1 Z M110.6,47.1 L111.9,47.4 C111.6,48.5 111.1,49.3 110.5,49.8 C109.8,50.4 108.9,50.6 107.9,50.6 C106.9,50.6 106,50.4 105.4,50 C104.7,49.6 104.2,49 103.9,48.2 C103.6,47.4 103.4,46.5 103.4,45.6 C103.4,44.6 103.6,43.7 104,43 C104.4,42.2 104.9,41.7 105.6,41.3 C106.3,40.9 107.1,40.7 107.9,40.7 C108.9,40.7 109.7,40.9 110.3,41.4 C111,41.9 111.4,42.6 111.7,43.5 L110.4,43.8 C110.2,43.1 109.8,42.6 109.4,42.3 C109,42 108.4,41.8 107.8,41.8 C107.1,41.8 106.4,42 105.9,42.3 C105.4,42.7 105,43.1 104.8,43.7 C104.6,44.3 104.5,44.9 104.5,45.6 C104.5,46.4 104.6,47.1 104.9,47.8 C105.1,48.4 105.5,48.9 106,49.2 C106.5,49.5 107.1,49.7 107.6,49.7 C108.3,49.7 108.9,49.5 109.4,49.1 C110.1,48.5 110.4,47.9 110.6,47.1 L110.6,47.1 Z M113.4,50.5 L113.4,40.8 L120.4,40.8 L120.4,41.9 L114.7,41.9 L114.7,44.9 L120.1,44.9 L120.1,46 L114.7,46 L114.7,49.3 L120.6,49.3 L120.6,50.4 L113.4,50.4 L113.4,50.5 L113.4,50.5 Z M122.4,50.5 L122.4,40.8 L123.7,40.8 L123.7,49.3 L128.5,49.3 L128.5,50.4 L122.4,50.4 L122.4,50.5 L122.4,50.5 Z M129.6,45.8 C129.6,44.2 130,42.9 130.9,42 C131.8,41.1 132.9,40.6 134.2,40.6 C135.1,40.6 135.9,40.8 136.6,41.2 C137.3,41.6 137.9,42.2 138.2,43 C138.6,43.8 138.8,44.6 138.8,45.6 C138.8,46.6 138.6,47.5 138.2,48.2 C137.8,49 137.2,49.6 136.5,50 C135.8,50.4 135,50.6 134.1,50.6 C133.2,50.6 132.4,50.4 131.7,49.9 C131,49.5 130.4,48.9 130.1,48.1 C129.8,47.4 129.6,46.6 129.6,45.8 L129.6,45.8 Z M130.9,45.8 C130.9,47 131.2,47.9 131.8,48.6 C132.4,49.3 133.2,49.6 134.2,49.6 C135.2,49.6 136,49.3 136.6,48.6 C137.2,47.9 137.5,47 137.5,45.7 C137.5,44.9 137.4,44.2 137.1,43.6 C136.8,43 136.4,42.6 135.9,42.2 C135.4,41.9 134.8,41.7 134.2,41.7 C133.3,41.7 132.5,42 131.9,42.6 C131.2,43.3 130.9,44.3 130.9,45.8 L130.9,45.8 Z M140.5,50.5 L140.5,40.8 L141.8,40.8 L146.9,48.4 L146.9,40.8 L148.1,40.8 L148.1,50.5 L146.8,50.5 L141.7,42.9 L141.7,50.5 L140.5,50.5 L140.5,50.5 Z M149.2,50.5 L152.9,40.8 L154.3,40.8 L158.3,50.5 L156.8,50.5 L155.7,47.6 L151.7,47.6 L150.6,50.5 L149.2,50.5 L149.2,50.5 Z M152,46.5 L155.3,46.5 L154.3,43.8 L153.6,41.8 C153.5,42.4 153.3,43 153.1,43.6 L152,46.5 L152,46.5 Z M161.4,50.5 L161.4,42.5 L158.5,42.5 L158.5,40.9 L166.2,40.9 L166.2,42.5 L163.3,42.5 L163.3,50.5 L161.4,50.5 L161.4,50.5 Z M167.5,50.5 L167.5,40.8 L174.7,40.8 L174.7,42.4 L169.5,42.4 L169.5,44.5 L174.4,44.5 L174.4,46.1 L169.5,46.1 L169.5,48.7 L174.9,48.7 L174.9,50.3 L167.5,50.3 L167.5,50.5 L167.5,50.5 Z M182.7,46.9 L184.6,47.5 C184.3,48.6 183.8,49.3 183.2,49.9 C182.5,50.4 181.7,50.7 180.6,50.7 C179.3,50.7 178.3,50.3 177.4,49.4 C176.6,48.5 176.2,47.3 176.2,45.8 C176.2,44.2 176.6,42.9 177.4,42 C178.2,41.1 179.3,40.7 180.7,40.7 C181.9,40.7 182.8,41.1 183.6,41.8 C184,42.2 184.4,42.8 184.6,43.6 L182.7,44.1 C182.6,43.6 182.3,43.2 182,42.9 C181.6,42.6 181.2,42.5 180.7,42.5 C180,42.5 179.4,42.8 179,43.3 C178.6,43.8 178.3,44.6 178.3,45.8 C178.3,47 178.5,47.9 179,48.4 C179.4,48.9 180,49.2 180.7,49.2 C181.2,49.2 181.7,49 182,48.7 C182.3,48.1 182.5,47.6 182.7,46.9 L182.7,46.9 Z M186.3,50.5 L186.3,40.8 L188.3,40.8 L188.3,44.6 L192.1,44.6 L192.1,40.8 L194.1,40.8 L194.1,50.5 L192.1,50.5 L192.1,46.3 L188.3,46.3 L188.3,50.5 L186.3,50.5 L186.3,50.5 Z" id="Shape"></path>
        </g>
    </g>
</svg>