<?xml version="1.0" encoding="UTF-8" standalone="no"?>
<!-- Created with Inkscape (http://www.inkscape.org/) -->

<svg
   xmlns:dc="http://purl.org/dc/elements/1.1/"
   xmlns:cc="http://creativecommons.org/ns#"
   xmlns:rdf="http://www.w3.org/1999/02/22-rdf-syntax-ns#"
   xmlns:svg="http://www.w3.org/2000/svg"
   xmlns="http://www.w3.org/2000/svg"
   version="1.1"
   width="892.91339"
   height="328.46457"
   id="svg53709">
  <defs
     id="defs53711" />
  <metadata
     id="metadata53714">
    <rdf:RDF>
      <cc:Work
         rdf:about="">
        <dc:format>image/svg+xml</dc:format>
        <dc:type
           rdf:resource="http://purl.org/dc/dcmitype/StillImage" />
        <dc:title></dc:title>
      </cc:Work>
    </rdf:RDF>
  </metadata>
  <g
     transform="translate(163.9761,-247.38679)"
     id="layer1">
    <g
       transform="matrix(10.771567,0,0,10.771567,-5134.0788,-6184.4799)"
       id="g53726">
      <path
         d="m 543.41464,607.43944 c -1.72125,-0.96625 -2.415,-1.3175 -3.43375,-1.3175 -0.9425,0 -1.39625,0.48375 -1.39625,1.2275 0,2.23874 5.39125,1.62499 5.39125,6.84499 0,2.8525 -1.57125,4.56375 -4.24125,4.56375 -1.63625,0 -2.405,-0.7025 -3.6,-1.4925 l 0,-3.2025 c 1.72125,1.405 2.415,1.93125 3.715,1.93125 1,0 1.395,-0.52625 1.395,-1.405 0,-2.45625 -5.35625,-1.535 -5.35625,-6.93 0,-2.58999 1.07125,-4.30124 3.84625,-4.30124 1.335,0 2.17,0.35125 3.68,1.18375 l 0,2.8975 z m -41.63875,-3.9475 c 2.4575,0 3.53875,2.0625 3.53875,4.29999 0,1.62375 -0.6675,2.8525 -2.0375,3.64125 -0.38125,0.16375 -0.57875,0.2125 -0.8625,0.28375 l 4.12875,6.73625 -2.90625,0 -3.89,-6.09875 0,6.09875 -2.625,0 0,-14.96124 4.65375,0 z m -2.02875,6.14374 1.22,0 c 0.84375,0 1.65125,-0.44 1.65125,-1.71125 0,-1.13999 -0.5975,-1.71124 -1.72125,-1.71124 l -1.15,0 0,3.42249 z m 19.31125,8.8175 -2.8375,0 -0.98375,-2.98375 -4.65375,0 -0.8775,2.98375 -2.80125,0 4.4525,-14.96124 2.75625,0 4.945,14.96124 z m -6.27125,-11.40624 -1.395,5.83499 2.9675,0 -1.5725,-5.83499 z m 9.7725,11.40624 -2.62525,0 0,-14.96124 2.62525,0 0,14.96124 z m 12.1875,0 -2.16875,0 -5.52375,-9.60875 0,9.60875 -2.625,0 0,-14.96124 2.37875,0 5.3125,9.12624 0,-9.12624 2.62625,0 0,14.96124 z m -41.40125,-8.24875 c 1.0175,-0.6125 1.65,-1.71 1.65,-2.98249 0,-0.6625 -0.13,-1.38625 -0.4575,-2.01875 -0.96375,0.85375 -2.0275,1.7825 -2.34875,2.06125 0.05,0.17375 0.0763,0.35249 0.0763,0.52749 0,0.79 -0.4225,1.62375 -1.51125,1.62375 l -0.86,0 0,-3.56374 3.13375,-2.05375 c -0.45,-0.19125 -0.99,-0.30625 -1.64125,-0.30625 l -4.11875,0 0,14.96124 4.39125,0 c 3.5125,0 4.25,-2.67625 4.25,-4.3875 0,-1.755 -0.84375,-3.29 -2.56375,-3.86125 z m -2.48625,5.485 -0.965,0 0,-3.51 1.3875,0 c 1.0525,0 1.82625,0.57 1.82625,1.66875 0,1.31625 -0.5975,1.84125 -2.24875,1.84125"
         id="path52247"
         style="fill:#1d5da7;fill-opacity:1;fill-rule:nonzero;stroke:none" />
      <path
         d="m 484.96464,611.50068 2.015,-1.37 0,-2.29625 -1.82,1.1875 c 0,0 -1.5025,0.97375 -2.0275,1.31625 0.0387,-0.29625 0.08,-0.61 0.08,-0.61 0.26375,-1.95625 0.5075,-3.90874 0.5075,-5.20874 0,-0.6275 -0.0575,-1.10375 -0.19625,-1.35125 -0.1,-0.17625 -0.25,-0.28875 -0.43625,-0.3275 -0.24625,-0.0512 -0.5325,0.035 -0.8075,0.24375 -0.8625,0.6 -1.29,2.355 -1.29,5.33374 0,0.9625 0.0475,2.06125 0.13625,3.28125 -0.1,0.0912 -0.59625,0.53625 -0.59625,0.53625 0.008,-0.006 -0.85125,0.75 -0.85125,0.75 -10e-4,10e-4 -0.0238,0.0287 -0.0375,0.0462 -0.7975,0.70375 -1.2975,1.09875 -1.48875,1.17375 -0.2375,0.095 -0.44625,0.115 -0.635,0.0975 1.08125,-0.7975 1.96375,-2.505 1.96375,-3.52 0,-0.1175 -0.0112,-0.225 -0.035,-0.32125 -0.1775,-0.69375 -0.5275,-1.19875 -1.015,-1.46 -0.4775,-0.25375 -1.055,-0.265 -1.7175,-0.0288 l -0.25875,0.105 c -1.19125,0.54 -4.81875,2.57875 -5.94375,3.2125 0.1325,-1.59 0.78625,-8.84249 0.96875,-12.66749 0.1175,-2.4725 0,-0.94 0,-1.42 0,-1.7975 -2.25875,10e-4 -3.50875,1.2525 -0.52375,0.52375 -2.16375,2.0225 -1.57,3.16 0.63875,1.2275 1.31125,0.815 1.665,2.9275 0.62,3.71124 0.14625,7.51624 0.1475,7.76124 -0.20375,0.0975 -1.75875,0.82625 -1.75875,0.82625 -2.68,1.24125 -4.71625,2.1825 -4.71625,3.73 0,0.24125 0.0488,0.49625 0.15375,0.76875 2.22375,5.81625 5.25375,8.94375 6.44875,8.62875 1.7325,-0.4625 1.8025,-2.73875 1.91,-6.18375 0.0525,-1.7175 0.115,-3.66375 0.37875,-5.85 0.14,-0.0888 3.0525,-2.25625 3.5925,-2.60375 -0.25875,0.5275 -0.25625,1.03875 -0.25625,1.31375 0,0.685 0.0987,1.25 0.2375,1.54 0.23375,0.49125 0.44125,0.85625 0.97625,1.0975 0.67875,0.32375 1.26875,0.415 2.4275,-0.0412 0.52,-0.205 1.41125,-0.8225 2.4025,-1.65375 0.1975,0.34 1.05625,1.81625 1.05625,1.81625 l 0.78625,1.34125 c 0.355,0.63125 0.91875,0.80875 1.54625,0.48875 0.47625,-0.23875 0.7925,-0.44875 0.88625,-0.755 0.02,-0.065 0.0275,-0.1275 0.0275,-0.19 0,-0.2075 -0.0913,-0.40375 -0.18,-0.56 -0.90375,-1.60625 -0.96375,-3.01 -0.96375,-4.07375 0,-0.0688 0,-0.13625 0,-0.2025 0.155,-0.1075 1.79625,-1.24125 1.79625,-1.24125 z m -17.6925,11.0125 c -0.71125,-0.57625 -1.0475,-1.06375 -1.56875,-2.3225 -0.88,-2.1275 0.33875,-2.7875 2.54875,-4.04 -0.26375,2.2675 -0.44625,6.895 -0.98,6.3625 z m 8.8,-9.0975 c -0.0312,-0.7975 -0.1975,-1.82625 0.83,-2.37125 0.40125,-0.2175 0.635,-0.08 0.77,0.055 0.27,0.2725 -0.33625,1.52875 -1.6,2.31625 z m 20.3425,-10.55999 c 0,0.14125 -0.115,0.245 -0.28375,0.39875 l -0.22625,0.21 c -0.60625,0.60625 -1.76125,1.645 -1.76125,1.645 l -2.31125,1.97875 c -0.405,0.40624 -0.97375,0.85499 -1.69125,1.33749 l -0.0387,0.0262 0,-2.30124 3.24,-2.175 0.445,-0.30875 c 1.20625,-0.84 3.1275,-2.035 3.2925,-1.93375 0.0725,0.0475 -0.67375,1.0175 -0.66625,1.0975 0.001,0.009 0.001,0.0175 0.001,0.025"
         id="path52249"
         style="fill:#f38f09;fill-opacity:1;fill-rule:nonzero;stroke:none" />
    </g>
  </g>
</svg>
