<?xml version="1.0" encoding="UTF-8"?>
<svg width="217px" height="44px" viewBox="0 0 217 44" version="1.1" xmlns="http://www.w3.org/2000/svg" xmlns:xlink="http://www.w3.org/1999/xlink">
    <!-- Generator: Sketch 44.1 (41455) - http://www.bohemiancoding.com/sketch -->
    <title>facebook-1</title>
    <desc>Created with Sketch.</desc>
    <defs></defs>
    <g id="Page-1" stroke="none" stroke-width="1" fill="none" fill-rule="evenodd">
        <g id="facebook-1" fill-rule="nonzero" fill="#FFFFFF">
            <g id="Group">
                <path d="M112.021,21.597 C110.237,21.597 108.951,22.182 107.647,22.778 L107.647,36.264 C108.896,36.383 109.612,36.383 110.797,36.383 C115.079,36.383 115.666,34.422 115.666,31.684 L115.666,25.243 C115.666,23.221 114.995,21.597 112.021,21.597 L112.021,21.597 Z M83.583,20.861 C80.612,20.861 79.934,22.492 79.934,24.512 L79.934,25.647 L87.228,25.647 L87.228,24.512 C87.228,22.492 86.55,20.861 83.583,20.861 Z M28.493,34.898 C28.493,36.496 29.247,37.326 30.911,37.326 C32.696,37.326 33.753,36.744 35.056,36.146 L35.056,32.947 L31.153,32.947 C29.305,32.947 28.493,33.291 28.493,34.898 Z M139.684,21.597 C136.708,21.597 135.677,23.221 135.677,25.243 L135.677,32.622 C135.677,34.649 136.708,36.278 139.684,36.278 C142.652,36.278 143.691,34.649 143.691,32.622 L143.691,25.243 C143.69,23.221 142.651,21.597 139.684,21.597 L139.684,21.597 Z M13.909,43.172 L5.161,43.172 L5.161,21.998 L0.79,21.998 L0.79,14.702 L5.162,14.702 L5.162,10.32 C5.162,4.367 7.629,0.828 14.641,0.828 L20.479,0.828 L20.479,8.126 L16.83,8.126 C14.1,8.126 13.92,9.146 13.92,11.049 L13.909,14.701 L20.519,14.701 L19.746,21.997 L13.909,21.997 L13.909,43.172 L13.909,43.172 Z M43.806,43.227 L36.515,43.227 L36.2,41.383 C32.871,43.227 29.9,43.526 27.94,43.526 C22.593,43.526 19.747,39.954 19.747,35.014 C19.747,29.186 23.068,27.106 29.009,27.106 L35.056,27.106 L35.056,25.846 C35.056,22.871 34.715,21.998 30.14,21.998 L22.66,21.998 L23.391,14.702 L31.567,14.702 C41.605,14.702 43.806,17.873 43.806,25.905 L43.806,43.227 L43.806,43.227 Z M68.599,22.533 C64.062,21.755 62.759,21.584 60.576,21.584 C56.655,21.584 55.47,22.449 55.47,25.779 L55.47,32.078 C55.47,35.408 56.655,36.277 60.576,36.277 C62.759,36.277 64.062,36.103 68.599,35.322 L68.599,42.439 C64.625,43.33 62.036,43.564 59.848,43.564 C50.456,43.564 46.723,38.625 46.723,31.49 L46.723,26.379 C46.723,19.238 50.456,14.29 59.848,14.29 C62.036,14.29 64.625,14.525 68.599,15.42 L68.599,22.533 L68.599,22.533 Z M95.975,31.49 L79.933,31.49 L79.933,32.078 C79.933,35.408 81.119,36.277 85.039,36.277 C88.563,36.277 90.714,36.103 95.243,35.322 L95.243,42.439 C90.875,43.33 88.599,43.564 84.314,43.564 C74.921,43.564 71.186,38.625 71.186,31.49 L71.186,25.646 C71.186,19.403 73.957,14.29 83.582,14.29 C93.207,14.29 95.975,19.344 95.975,25.646 L95.975,31.49 L95.975,31.49 Z M124.412,31.625 C124.412,38.521 122.441,43.551 110.501,43.551 C106.189,43.551 103.66,43.172 98.901,42.44 L98.901,3.02 L107.646,1.561 L107.646,15.35 C109.536,14.648 111.982,14.291 114.208,14.291 C122.954,14.291 124.411,18.212 124.411,24.513 L124.411,31.625 L124.412,31.625 Z M152.445,31.775 C152.445,37.724 149.989,43.494 139.713,43.494 C129.432,43.494 126.93,37.724 126.93,31.775 L126.93,26.031 C126.93,20.079 129.432,14.308 139.713,14.308 C149.989,14.308 152.445,20.079 152.445,26.031 L152.445,31.775 Z M180.459,31.775 C180.459,37.724 178,43.494 167.726,43.494 C157.445,43.494 154.943,37.724 154.943,31.775 L154.943,26.031 C154.943,20.079 157.445,14.308 167.726,14.308 C178,14.308 180.459,20.079 180.459,26.031 L180.459,31.775 Z M209.208,43.172 L199.729,43.172 L191.712,29.789 L191.712,43.172 L182.964,43.172 L182.964,3.019 L191.712,1.56 L191.712,27.409 L199.729,14.702 L209.208,14.702 L200.456,28.569 L209.208,43.172 L209.208,43.172 Z M167.696,21.597 C164.725,21.597 163.694,23.221 163.694,25.243 L163.694,32.622 C163.694,34.649 164.725,36.278 167.696,36.278 C170.663,36.278 171.713,34.649 171.713,32.622 L171.713,25.243 C171.713,23.221 170.663,21.597 167.696,21.597 Z M214.201,38.178 C215.674,38.178 216.847,39.379 216.847,40.879 C216.847,42.402 215.673,43.59 214.19,43.59 C212.714,43.59 211.517,42.402 211.517,40.879 C211.517,39.379 212.714,38.178 214.19,38.178 L214.201,38.178 L214.201,38.178 Z M214.19,38.598 C213.003,38.598 212.032,39.619 212.032,40.879 C212.032,42.162 213.004,43.17 214.201,43.17 C215.399,43.182 216.356,42.162 216.356,40.891 C216.356,39.62 215.399,38.598 214.201,38.598 L214.19,38.598 L214.19,38.598 Z M213.687,42.451 L213.207,42.451 L213.207,39.437 C213.459,39.402 213.699,39.367 214.059,39.367 C214.515,39.367 214.813,39.463 214.996,39.594 C215.173,39.727 215.268,39.93 215.268,40.217 C215.268,40.615 215.006,40.854 214.683,40.951 L214.683,40.974 C214.946,41.023 215.125,41.261 215.186,41.704 C215.256,42.173 215.329,42.352 215.376,42.45 L214.873,42.45 C214.802,42.352 214.729,42.077 214.669,41.68 C214.599,41.297 214.405,41.153 214.021,41.153 L213.688,41.153 L213.688,42.451 L213.687,42.451 Z M213.687,40.783 L214.035,40.783 C214.429,40.783 214.764,40.638 214.764,40.265 C214.764,40.001 214.574,39.738 214.035,39.738 C213.878,39.738 213.769,39.75 213.687,39.761 L213.687,40.783 Z" id="Shape"></path>
            </g>
        </g>
    </g>
</svg>