<?xml version="1.0" encoding="UTF-8"?>
<svg width="294px" height="194px" viewBox="0 0 294 194" version="1.1" xmlns="http://www.w3.org/2000/svg" xmlns:xlink="http://www.w3.org/1999/xlink">
    <!-- Generator: Sketch 44.1 (41455) - http://www.bohemiancoding.com/sketch -->
    <title>intel</title>
    <desc>Created with Sketch.</desc>
    <defs></defs>
    <g id="Page-1" stroke="none" stroke-width="1" fill="none" fill-rule="evenodd">
        <g id="intel" fill-rule="nonzero" fill="#FFFFFF">
            <path d="M292.3,55.1 C278.5,-12.1 148.5,-16.4 64.7,34.8 L64.7,40.5 C148.4,-2.7 267.1,-2.5 278,59.4 C281.6,79.9 270.2,101.2 249.6,113.5 L249.6,129.6 C274.3,120.5 299.6,91.1 292.3,55.1 L292.3,55.1 Z M139.9,172.7 C82.1,178.1 21.8,169.6 13.4,124.3 C9.2,102 19.4,78.3 32.9,63.5 L32.9,55.6 C8.6,77 -4.6,104 3.1,135.8 C12.8,176.7 64.5,199.9 143.4,192.2 C174.7,189.2 215.6,179.1 243.9,163.4 L243.9,141.1 C218.1,156.6 175.5,169.4 139.9,172.7 Z" id="path6"></path>
            <path d="M239.3,45.3 L224.1,45.3 L224.1,113.1 C224.1,121.1 227.9,128 239.3,129.1" id="path8"></path>
            <path d="M58.7,70.1 L43.6,70.1 L43.6,114.4 C43.6,122.4 47.4,129.3 58.8,130.4" id="path10"></path>
            <rect id="rect12" x="43.6" y="47.4" width="15.2" height="14.4"></rect>
            <path d="M149.6,129.7 C137.3,129.7 132.1,121.1 132.1,112.7 L132.1,53.8 L147.1,53.8 L147.1,70.1 L158.5,70.1 L158.5,82.3 L147.1,82.3 L147.1,111.7 C147.1,115.2 148.8,117.1 152.3,117.1 L158.4,117.1 L158.4,129.7 L149.6,129.7" id="path14"></path>
            <path d="M189.4,81.6 C184.3,81.6 180.3,84.3 178.7,87.9 C177.7,90.1 177.4,91.7 177.2,94.4 L200.4,94.4 C200.1,87.8 197.1,81.6 189.4,81.6 M177.2,104.6 C177.2,112.3 182,118 190.5,118 C197.2,118 200.5,116.1 204.3,112.3 L213.6,121.2 C207.6,127.1 201.4,130.7 190.4,130.7 C176,130.7 162.2,122.8 162.2,99.8 C162.2,80.2 174.2,69.1 190,69.1 C206,69.1 215.2,82.1 215.2,99.2 L215.2,104.6 L177.2,104.6" id="path16"></path>
            <path d="M99.6,82.3 C104,82.3 105.8,84.5 105.8,88 L105.8,129.7 L120.8,129.7 L120.8,88 C120.8,79.5 116.3,70.1 103.1,70.1 L72.1,70.1 L72.1,129.8 L87.1,129.8 L87.1,82.3" id="path18"></path>
        </g>
    </g>
</svg>