<?xml version="1.0" encoding="UTF-8"?>
<svg width="180px" height="180px" viewBox="0 0 180 180" version="1.1" xmlns="http://www.w3.org/2000/svg" xmlns:xlink="http://www.w3.org/1999/xlink">
    <!-- Generator: Sketch 44.1 (41455) - http://www.bohemiancoding.com/sketch -->
    <title>jetbrains-logo-square</title>
    <desc>Created with Sketch.</desc>
    <defs></defs>
    <g id="Page-1" stroke="none" stroke-width="1" fill="none" fill-rule="evenodd">
        <g id="jetbrains-logo-square">
            <path d="M67.6074539,84.4137185 L63,77.7 C66.6,76.2 69,73.2 69,68.7 L69,68.6 C69,65.7 68.1,63.5 66.4,61.8 C64.5,59.9 61.4,58.7 56.9,58.7 L43,58.7 L43.1,87.9 L51.2,87.9 L51.2,79 L54.8,79 L60.7,87.9 L66.1420339,87.9 L67.6074539,84.4137185 Z M0,0.1 L179.9,0.1 L179.9,180 L0,180 L0,0.1 Z M15.6,146.2 L15.6,157.4 L83,157.4 L83,146.2 L15.6,146.2 Z M14.8,47.5 C16.9,50.3 20,52.4 25.1,52.4 C28.4,52.4 31.2,51.3 33.1,49.4 C35.1,47.5 36,44.9 36,41.2 L36,22.6 L27.9,22.6 L27.9,41.2 C27.9,43.9 26.6,45.3 24.6,45.3 C22.8,45.3 21.4,44.3 20,42.6 L14.8,47.5 Z M37.9,22.6 L37.9,51.9 L61.7,51.9 L61.7,45 L46,45 L46,40.4 L60.1,40.4 L60.1,34 L46,34 L46,29.5 L61.5,29.5 L61.5,22.6 L37.9,22.6 Z M72.1,29.7 L72.1,29.7 L72.1,51.9 L80.2,51.9 L80.2,29.7 L89,29.7 L89,22.6 L63.3,22.6 L63.3,29.7 L72.1,29.7 Z M15.5,58.7 L15.5,88.1 L30.6,88.1 C37.6,88.1 41.7,85 41.7,80 L41.7,79.9 C41.7,75.9 39.5,73.9 35.9,72.7 C38.5,71.6 40.4,69.6 40.4,66.2 L40.4,66.1 C40.4,64.1 39.7,62.5 38.5,61.3 C36.8,59.6 34.2,58.7 30.5,58.7 L15.5,58.7 Z M32.5,67.8 C32.5,69.6 31,70.4 28.6,70.5 L23.5,70.5 L23.5,65.3 L28.8,65.3 C31.2,65.3 32.5,66.2 32.5,67.8 Z M29.7,76.1 C32.4,76.1 33.6,77.2 33.7,78.7 L33.7,78.8 C33.7,80.5 32.3,81.5 29.8,81.5 L23.5,81.5 L23.5,76.1 L29.7,76.1 Z M56.5,72.8 L51.1,72.8 L51.1,65.7 L56.5,65.7 C59.2,65.7 60.9,66.9 60.9,69.2 L60.9,69.3 C60.9,71.5 59.2,72.8 56.5,72.8 Z M67.6074539,84.4137185 L70,87.9 L66.1420339,87.9 L66.1,88 L74.6,88 L76.7,82.7 L88,82.7 L90.1,88 L98.8,88 L86.3,58.5 L78.5,58.5 L67.6074539,84.4137185 Z M85.6,76.5 L79,76.5 L82.3,68.2 L85.6,76.5 Z M99.8,58.7 L99.8,88 L107.9,88 L107.9,58.7 L99.8,58.7 Z M109.9,58.7 L109.9,88.1 L117.9,88.1 L117.9,72 L130.5,88 L137.6,88 L137.6,58.7 L129.6,58.7 L129.6,74.2 L117.5,58.7 L109.9,58.7 Z M138.1,83.7 C141.7,86.9 146.6,88.6 151.7,88.4 C158.9,88.4 163.6,84.9 163.6,78.9 L163.6,78.8 C163.6,73.3 159.4,71.2 152.7,69.7 C148.6,68.8 147.6,68.2 147.6,66.9 L147.6,66.8 C147.6,65.7 148.5,64.9 150.5,64.9 C153.1,64.9 156,65.9 158.7,67.8 L162.8,62.1 C159.6,59.5 155.7,58.2 150.7,58.2 C143.7,58.2 139.4,62.2 139.4,67.6 L139.4,67.7 C139.4,73.7 144.3,75.5 150.5,76.9 C154.5,77.8 155.5,78.4 155.5,79.7 L155.5,79.8 C155.5,81 154.3,81.8 152.1,81.8 C148.7,81.8 145.5,80.6 142.6,78.3 L138.1,83.7 Z" id="Combined-Shape" fill="#FFFFFF" fill-rule="nonzero"></path>
            <g id="Group" transform="translate(138.000000, 58.000000)"></g>
        </g>
    </g>
</svg>