<?xml version="1.0" encoding="UTF-8"?>
<svg width="85px" height="23px" viewBox="0 0 85 23" version="1.1" xmlns="http://www.w3.org/2000/svg" xmlns:xlink="http://www.w3.org/1999/xlink">
    <!-- Generator: Sketch 44.1 (41455) - http://www.bohemiancoding.com/sketch -->
    <title>mozilla</title>
    <desc>Created with Sketch.</desc>
    <defs></defs>
    <g id="Page-1" stroke="none" stroke-width="1" fill="none" fill-rule="evenodd">
        <g id="mozilla" fill-rule="nonzero" fill="#FFFFFF">
            <path d="M3.7,6.8 C4,7.2 4.1,7.6 4.2,8.3 C5.2,7.3 6.4,6.8 7.8,6.8 C9,6.8 10,7.2 10.8,8 C11,8.2 11.2,8.5 11.4,8.7 C12.7,7.3 14,6.8 15.6,6.8 C16.8,6.8 17.8,7.1 18.5,7.7 C19.3,8.4 19.6,9.3 19.6,11.3 L19.6,21.8 L15.9,21.8 L15.9,12.1 C15.9,10.3 15.7,10 14.7,10 C14,10 13,10.5 12.1,11.2 L12.1,21.8 L8.4,21.8 L8.4,12.2 C8.4,10.4 8.1,9.9 7.1,9.9 C6.4,9.9 5.4,10.3 4.6,11 L4.6,21.7 L0.8,21.7 L0.8,11.5 C0.8,9.4 0.7,8.5 0.2,7.7 L3.7,6.8 Z M33.4,9 C34.6,10.4 35.1,12 35.1,14.4 C35.1,16.9 34.5,18.7 33.3,20.1 C32.2,21.4 30.7,22.1 28.4,22.1 C24.4,22.1 21.8,19.1 21.8,14.5 C21.8,9.9 24.4,6.8 28.4,6.8 C30.4,6.8 32.1,7.5 33.4,9 L33.4,9 Z M26.4,11.1 C26.1,11.9 26,12.9 26,14.4 C26,16.1 26.2,17.4 26.5,18.1 C26.8,18.9 27.7,19.3 28.5,19.3 C30.2,19.3 30.9,17.8 30.9,14.3 C30.9,12.3 30.6,11 30.1,10.4 C29.7,9.9 29.1,9.6 28.4,9.6 C27.5,9.6 26.7,10.2 26.4,11.1 L26.4,11.1 Z M47.5,7.1 L47.5,9.7 L41,19.1 L47.8,19.1 L46.9,21.8 L35.9,21.8 L35.9,19.4 L42.8,9.8 L36.4,9.8 L36.4,7.1 L47.5,7.1 Z M54,3 C54,4.3 52.9,5.4 51.6,5.4 C50.3,5.4 49.2,4.3 49.2,3 C49.2,1.7 50.3,0.6 51.6,0.6 C53,0.6 54,1.7 54,3 Z M53.5,6.7 L53.5,21.8 L49.6,21.8 L49.6,7.3 L53.5,6.7 Z M60.6,4.3 L60.6,15.8 C60.6,18.3 60.6,18.7 60.9,19.1 C61,19.4 61.4,19.5 61.7,19.5 C61.8,19.5 61.9,19.5 62.1,19.4 L62.8,21.7 C62.1,22 61.3,22.1 60.5,22.1 C58.9,22.1 57.5,21.3 57.1,20.1 C56.8,19.4 56.7,18.9 56.7,16.8 L56.7,5.8 C56.7,3.9 56.7,2.7 56.5,1.4 L60.4,0.5 C60.5,1.3 60.6,2.3 60.6,4.3 L60.6,4.3 Z M68.6,4.3 L68.6,15.8 C68.6,18.3 68.6,18.7 68.9,19.1 C69,19.4 69.3,19.5 69.7,19.5 C69.8,19.5 69.9,19.5 70.1,19.4 L70.8,21.7 C70.1,22 69.3,22.1 68.5,22.1 C66.9,22.1 65.5,21.3 65.1,20.1 C64.8,19.4 64.8,18.9 64.8,16.8 L64.8,5.8 C64.8,3.9 64.7,2.7 64.6,1.4 L68.5,0.5 C68.5,1.3 68.6,2.3 68.6,4.3 L68.6,4.3 Z M74.6,7.6 C76,7 77.3,6.7 78.6,6.7 C81.1,6.7 82.8,7.6 83.4,9.3 C83.6,9.9 83.7,10.4 83.7,11.9 L83.6,16.9 L83.6,17.2 C83.6,18.8 83.9,19.4 85,20.2 L83,22.6 C82.1,22.2 81.3,21.6 80.9,20.8 C80.6,21.1 80.3,21.4 80,21.6 C79.3,22.1 78.2,22.4 77,22.4 C73.7,22.4 71.9,20.7 71.9,17.8 C71.9,14.3 74.3,12.7 79,12.7 L79.9,12.7 L79.9,12.1 C79.9,10.5 79.6,9.9 78.2,9.9 C77,9.9 75.5,10.5 73.9,11.6 L72.3,8.8 C73,8.3 73.6,8 74.6,7.6 L74.6,7.6 Z M79.6,15.4 C76.9,15.4 76,15.9 76,17.6 C76,18.7 76.7,19.5 77.7,19.5 C78.4,19.5 79.1,19.1 79.7,18.5 L79.8,15.3 L79.6,15.3 L79.6,15.4 Z" id="Shape"></path>
        </g>
    </g>
</svg>