<?xml version="1.0" encoding="UTF-8"?>
<svg width="512px" height="67px" viewBox="0 0 512 67" version="1.1" xmlns="http://www.w3.org/2000/svg" xmlns:xlink="http://www.w3.org/1999/xlink">
    <!-- Generator: Sketch 44.1 (41455) - http://www.bohemiancoding.com/sketch -->
    <title>oracle</title>
    <desc>Created with Sketch.</desc>
    <defs></defs>
    <g id="Page-1" stroke="none" stroke-width="1" fill="none" fill-rule="evenodd">
        <g id="oracle" fill-rule="nonzero" fill="#FFFFFF">
            <path d="M221.034,43.303 L254.866,43.303 L236.977,14.522 L204.144,66.559 L189.202,66.559 L229.137,4.051 C230.873,1.526 233.767,-5.32907052e-15 236.977,-5.32907052e-15 C240.081,-5.32907052e-15 242.975,1.473 244.659,3.946 L284.752,66.559 L269.81,66.559 L262.76,54.931 L228.507,54.931 L221.035,43.303 L221.034,43.303 Z M376.251,54.93 L376.251,0.631 L363.571,0.631 L363.571,60.245 C363.571,61.876 364.202,63.455 365.412,64.665 C366.622,65.875 368.253,66.559 370.042,66.559 L427.867,66.559 L435.339,54.931 L376.25,54.931 L376.251,54.93 Z M166.471,45.196 C178.784,45.196 188.781,35.252 188.781,22.94 C188.781,10.627 178.784,0.63 166.471,0.63 L110.998,0.63 L110.998,66.56 L123.674,66.56 L123.674,12.26 L165.63,12.26 C171.523,12.26 176.258,17.049 176.258,22.942 C176.258,28.834 171.523,33.622 165.63,33.622 L129.883,33.57 L167.734,66.56 L186.15,66.56 L160.684,45.198 L166.472,45.198 L166.471,45.196 Z M32.97,66.559 C14.77,66.56 0,51.827 0,33.622 C0,15.416 14.77,0.632 32.97,0.632 L71.29,0.632 C89.494,0.632 104.253,15.416 104.253,33.622 C104.253,51.827 89.494,66.559 71.289,66.559 L32.97,66.559 Z M70.438,54.931 C82.229,54.931 91.779,45.407 91.779,33.621 C91.779,21.836 82.229,12.26 70.438,12.26 L33.818,12.26 C22.031,12.26 12.476,21.836 12.476,33.622 C12.476,45.407 22.031,54.931 33.817,54.931 L70.437,54.931 L70.438,54.931 Z M311.218,66.559 C293.014,66.559 278.228,51.827 278.228,33.622 C278.228,15.416 293.014,0.632 311.218,0.632 L356.732,0.632 L349.312,12.26 L312.06,12.26 C300.274,12.26 290.698,21.836 290.698,33.622 C290.698,45.407 300.274,54.931 312.06,54.931 L357.783,54.931 L350.311,66.559 L311.218,66.559 Z M466.278,54.931 C456.544,54.931 448.283,48.407 445.758,39.409 L499.952,39.409 L507.423,27.781 L445.758,27.781 C448.283,18.836 456.544,12.26 466.278,12.26 L503.478,12.26 L511,0.63 L465.435,0.63 C447.23,0.63 432.445,15.415 432.445,33.62 C432.445,51.826 447.23,66.558 465.435,66.558 L504.529,66.558 L512,54.931 L466.277,54.931 L466.278,54.931 Z" id="Shape"></path>
        </g>
    </g>
</svg>