<?xml version="1.0" encoding="UTF-8"?>
<svg width="4707px" height="982px" viewBox="0 0 4707 982" version="1.1" xmlns="http://www.w3.org/2000/svg" xmlns:xlink="http://www.w3.org/1999/xlink">
    <!-- Generator: Sketch 44.1 (41455) - http://www.bohemiancoding.com/sketch -->
    <title>uber</title>
    <desc>Created with Sketch.</desc>
    <defs></defs>
    <g id="Page-1" stroke="none" stroke-width="1" fill="none" fill-rule="evenodd">
        <g id="uber" fill-rule="nonzero" fill="#FFFFFF">
            <path d="M764,0 L945,0 L945,574 C945,876 752,982 472,982 C193,982 0,876 0,574 L0,23 C0,7 8,0 24,0 L205,0 L205,565 C205,746 285,821 472,821 C660,821 740,746 740,565 L740,23 C740,7 748,0 764,0 Z M2813,157 L2813,399 L3271,399 C3279,399 3282,403 3279,411 L3229,535 C3224,546 3217,551 3202,551 L2933,551 C2845,551 2813,578 2813,637 L2813,808 L3433,808 C3441,808 3444,812 3441,820 L3389,949 C3384,960 3377,965 3362,965 L2683,965 C2631,965 2611,947 2611,908 L2611,67 C2611,20 2637,0 2705,0 L3433,0 C3441,0 3444,4 3441,11 L3389,141 C3384,152 3377,157 3362,157 L2813,157 Z M2238,698 C2238,891 2102,965 1911,965 L1405,965 C1352,965 1333,947 1333,908 L1333,67 C1333,20 1358,0 1427,0 L1838,0 C2018,0 2192,31 2192,245 C2192,337 2159,415 2080,456 C2189,485 2238,583 2238,698 Z M1532,402 L1853,402 C1959,402 1989,361 1989,277 C1989,193 1959,153 1853,153 L1532,153 L1532,402 Z M2035,680 C2035,591 2004,547 1890,547 L1653,547 C1565,547 1532,574 1532,633 L1532,812 L1890,812 C2004,812 2035,768 2035,680 Z M4695,965 L4511,965 C4496,965 4490,959 4484,949 L4289,597 L4110,597 C4022,597 3989,624 3989,683 L3989,965 L3813,965 C3797,965 3789,957 3789,942 L3789,67 C3789,20 3815,0 3883,0 L4296,0 C4537,0 4682,63 4682,297 C4682,478 4595,549 4487,577 L4704,948 C4708,954 4708,965 4695,965 Z M4479,301 C4479,203 4452,155 4326,155 L3989,155 L3989,447 L4326,447 C4452,447 4479,400 4479,301 Z" id="Shape"></path>
        </g>
    </g>
</svg>